<?xml version="1.0" standalone="no"?>
<!DOCTYPE svg PUBLIC "-//W3C//DTD SVG 1.1//EN" "http://www.w3.org/Graphics/SVG/1.1/DTD/svg11.dtd" >
<svg xmlns="http://www.w3.org/2000/svg">
<metadata>
This is a custom SVG webfont generated by Font Squirrel.
</metadata>
<defs>
<font id="SwensonRegular" horiz-adv-x="680" >
<font-face units-per-em="2048" ascent="1638" descent="-410" />
<missing-glyph horiz-adv-x="456" />
<glyph unicode=" "  horiz-adv-x="456" />
<glyph unicode="&#x09;" horiz-adv-x="456" />
<glyph unicode="&#xa0;" horiz-adv-x="456" />
<glyph unicode="!" horiz-adv-x="532" d="M4 60q6 36 38 62t70 26q36 0 36 -52q0 -35 -27 -68.5t-61 -39.5h-19q-24 0 -30.5 19t-6.5 53zM129 256q2 8 2 16l330 883q0 10 13.5 23.5t45.5 13.5q35 0 35 -33q0 -11 -6 -23l-353 -868q-10 -30 -40 -36q-8 0 -16.5 7t-10.5 17z" />
<glyph unicode="&#x22;" d="M268 1364q6 64 60 64q62 0 68 -64q0 -94 -18 -309t-18 -223q0 -44 -32 -52q-24 8 -25 52q-8 92 -21.5 261.5t-13.5 270.5zM549 1364q5 64 59 64q68 0 68 -105q0 -80 -17.5 -280.5t-17.5 -210.5q-1 -44 -33 -52q-24 8 -24 52q-8 92 -21.5 261.5t-13.5 270.5z" />
<glyph unicode="#" horiz-adv-x="907" d="M43 448h201l36 260h-184v72h193l51 373h92l-60 -373h236l52 373h84l-56 -373h172l4 -72h-188l-35 -260h168l6 -71h-182l-53 -377h-84l53 377h-233l-56 -377h-80l52 377h-181zM324 448h235l37 260h-232z" />
<glyph unicode="$" horiz-adv-x="907" d="M96 274q0 12 4 46q0 44 40 44q16 0 26 -11t10 -29v-8q-4 -14 -4 -42q0 -70 55 -116t133 -50q64 2 121 35.5t92 90t35 122.5q0 60 -28 109t-85 120t-85.5 123t-28.5 116q2 104 51.5 165t115.5 86t124 25h28l60 143q6 21 36 21q28 0 28 -25v-6l-60 -149q53 -19 86.5 -64.5 t33.5 -95.5q0 -26 -15 -45.5t-33 -22.5q-26 6 -27 72q0 44 -44.5 72t-108.5 28q-72 0 -127.5 -41t-59.5 -123q0 -76 26.5 -126t80.5 -117t81 -119t27 -130q0 -89 -46 -165.5t-128 -121t-182 -44.5l-80 -197q-13 -36 -39 -36q-15 0 -21 32q8 16 8 25l76 191q-44 10 -110 57.5 t-66 160.5z" />
<glyph unicode="%" horiz-adv-x="1405" d="M104 637q4 58 31 172q30 98 85.5 172.5t127.5 114.5q74 40 152 40q63 -10 99 -43t51 -65q16 -32 22 -47q66 0 156.5 38t170.5 85q80 48 105 68q12 12 28 12q22 0 44 -48q-68 -100 -202 -274t-293.5 -382t-261 -358t-135.5 -238q-14 -44 -44 -44q-10 0 -17 31q7 21 13 61 q15 52 196.5 306t393.5 526q212 274 266 328q2 0 -76 -48t-169 -86t-171 -38q-8 -124 -65 -238t-142 -182t-172 -68q-187 0 -193 205zM172 620q6 -120 104 -132q60 0 135 53t129 150t60 221q-7 0 -18.5 12t-13.5 28q6 24 28 48q-40 80 -121 80q-102 0 -167 -73t-95.5 -176 t-40.5 -211zM740 223q0 105 45 220t131 192t204 77q94 -3 135 -63.5t41 -156.5q0 -102 -47 -215t-132 -189t-193 -80q-92 0 -138 62.5t-46 152.5zM805 215q7 -139 111 -151q56 0 110 29t98 83t68 127q37 126 37 201q0 66 -36 111q-35 45 -97 45q-54 0 -109 -41.5t-97 -111.5 q-42 -71 -62 -151q-14 -64 -23 -141z" />
<glyph unicode="&#x26;" horiz-adv-x="1024" d="M28 152q8 124 136 220q90 68 111.5 87t21.5 37q0 9 -28.5 54.5t-40.5 113.5q0 92 44.5 168t116.5 129.5t152.5 81.5t150.5 28t133.5 -29.5t63.5 -89.5q0 -40 -45 -84q-14 -12 -91 -70t-131 -107t-77 -91q-58 0 -66 28q14 60 60 99.5t149.5 116.5t103.5 104q0 43 -100 43 q-74 0 -166 -44t-156.5 -115t-66.5 -148q5 -28 30 -79t34.5 -74t9.5 -56q0 -30 -26 -56.5t-91 -70.5q-60 -40 -96 -94t-39 -102q3 -38 32 -63t83 -25q108 0 201 63t135 105q-10 22 -38 64t-42 72q0 6 -8 19q2 12 8.5 19.5t14 10t19.5 4.5t19 3q30 -62 84 -135 q82 102 102 135q4 4 25 4q46 0 51 -12q-12 -28 -45.5 -71t-97.5 -122q4 -4 59 -85.5t88 -129.5q-7 -2 -9 -3t-8 -2t-50 -3q-18 0 -38 19t-37 45t-33 61q-18 35 -20 39q-102 -78 -141.5 -104.5t-85 -41t-129.5 -26.5q-32 -4 -43 -4q-82 0 -135.5 47t-57.5 117z" />
<glyph unicode="'" horiz-adv-x="303" d="M360 1188q28 74 57 148.5t58 148.5q4 6 9.5 14t11.5 11q5 4 20 6q22 0 46 2t30 2q24 0 24 -12t-20 -40l-192 -292z" />
<glyph unicode="(" horiz-adv-x="755" d="M160 -213q2 262 76 524.5t183 483.5t218 383t187 250h73q-186 -224 -314.5 -448t-204.5 -433t-110 -403t-36 -376q5 -126 20 -268h-64q-20 118 -28 287z" />
<glyph unicode=")" horiz-adv-x="755" d="M-176 -500q182 222 309.5 444.5t203.5 432t109 402.5t33 374q0 157 -14 275h67q22 -126 23 -288q0 -263 -72.5 -522.5t-180.5 -478.5t-216 -381t-190 -258h-72z" />
<glyph unicode="*" d="M148 1196l40 92l244 -129l29 265l92 4l-65 -273l264 69l24 -92l-288 -32l153 -236l-82 -45l-119 261l-180 -224l-72 64l208 196z" />
<glyph unicode="+" horiz-adv-x="1229" d="M248 328v68h328v329h71v-329h326v-68h-326v-328h-71v328h-328z" />
<glyph unicode="," horiz-adv-x="456" d="M-72 -168q28 70 56.5 140t56.5 140q5 20 11.5 28t23.5 8h68q36 0 36 -17q0 -3 -16 -35l-184 -280q-6 -12 -27 -12q-25 0 -25 20v8z" />
<glyph unicode="-" d="M41 324q14 51 23 62q8 10 36 10h408q-18 -55 -26 -64q-8 -8 -42 -8h-399z" />
<glyph unicode="." horiz-adv-x="456" d="M-4 28q0 43 32 81.5t76 38.5q36 0 36 -52q0 -43 -28 -75.5t-71 -32.5q-45 0 -45 40z" />
<glyph unicode="/" horiz-adv-x="567" d="M-33 -47l629 1419l47 108h92l-627 -1420l-48 -107h-93z" />
<glyph unicode="0" horiz-adv-x="907" d="M16 320q6 104 44 252q40 124 100 231t135 187t161 126q84 46 172 48q122 0 192 -88q69 -86 69 -236q1 -124 -49 -256q-86 -249 -229 -412.5t-318 -175.5q-89 0 -150.5 40t-93 113t-33.5 171zM100 293q3 -99 44 -159t120 -66q149 0 277.5 136t210.5 368q58 152 57 280 q0 108 -44.5 169t-123.5 67q-88 0 -178.5 -63.5t-167.5 -175t-127 -249.5q-62 -178 -68 -307z" />
<glyph unicode="1" horiz-adv-x="907" d="M140 0q58 88 116 191t116.5 219t113 233t106.5 233q-128 -88 -152 -102q-22 -14 -44 -14q-10 0 -19 24q6 41 51 64q46 26 77 45t55 38.5t40 34t33 30.5q15 14 45.5 64t53 77t50.5 27q4 0 19 -5q23 -7 23 -31q0 -40 -97 -145q-20 -21 -80.5 -155t-131.5 -293.5t-144 -303 t-135 -227.5z" />
<glyph unicode="2" horiz-adv-x="907" d="M-156 92q0 58 36 94.5t96 36.5q50 0 93 -15.5t127 -51.5q135 106 261.5 226t226.5 250t135 240q17 58 17 92q0 56 -34 86q-36 30 -90 30q-72 0 -134 -40.5t-117.5 -100t-112.5 -120.5q-10 0 -26 14.5t-19 26.5q38 73 105.5 141.5t150.5 111t166 42.5q82 0 138.5 -45.5 t56.5 -128.5q0 -70 -34 -155.5t-98 -173.5q-204 -282 -524 -521q160 -61 289 -67q118 6 207 48v-32q0 -88 -205 -88q-181 0 -355 92q-77 -45 -130 -68q-54 -24 -126 -24q-100 12 -100 100zM-92 96q10 -50 68 -49q42 3 153 65v13q-16 4 -46.5 15t-56.5 17.5t-54 6.5 q-64 -6 -64 -68z" />
<glyph unicode="3" horiz-adv-x="907" d="M-4 240q0 96 45 96q11 0 19 -4t8 -8q0 -18 -8 -76q7 -172 145 -188q23 0 39 -4q92 4 183 52t150.5 129t59.5 175q0 76 -37.5 126t-79.5 50q-18 -2 -51 -8t-53 -8q-11 4 -33 7t-33.5 11t-17.5 30q8 52 112 52q26 0 92 -8q93 50 154.5 109t90 114t28.5 100q0 44 -30 66 q-31 22 -79 22q-66 0 -139 -33t-129 -98q-34 -34 -64 -41q-16 0 -24 33q21 62 84 112t143.5 78.5t145.5 28.5q78 0 129 -42.5t51 -116.5q0 -62 -37.5 -134t-105 -133.5t-154.5 -95.5q60 -46 92.5 -85.5t32.5 -115.5q0 -91 -42.5 -172.5t-114.5 -141.5t-160 -93t-176 -33 q-86 0 -149.5 39t-78.5 113q-8 74 -8 96z" />
<glyph unicode="4" horiz-adv-x="907" d="M-33 336q0 37 58 83.5t96 55.5q23 10 107 160.5t156 308.5t72 196q0 26 24 51t48 25t25 -40q-1 -28 -25 -96q-40 -82 -102 -199.5t-125 -234t-88 -162.5q43 -8 126 -20q83 -14 132 -16q47 6 53 13q9 16 139.5 270.5t151.5 284.5q12 16 33 16q28 0 28 -32q0 -6 -8 -32 q-37 -59 -142 -272q-105 -214 -122 -244q10 -6 60 -16q20 0 50.5 2t49.5 2q36 0 45 -8q6 0 6 -16q0 -22 -29.5 -39t-68.5 -17q-26 2 -68.5 9.5t-64.5 7.5h-16q-9 -18 -69.5 -167.5t-82.5 -193.5q-12 -28 -52 -28q-23 0 -28 32q2 8 4 21t4 19q38 103 80 193.5t64 131.5 q-18 4 -84 9.5t-125 10.5t-79 11q-26 0 -46.5 -14t-47 -43t-45.5 -44.5t-45 -17.5q-28 8 -38.5 14.5t-10.5 24.5z" />
<glyph unicode="5" horiz-adv-x="907" d="M-47 129q0 28 9.5 52t25.5 24q24 1 24 -65q0 -35 45 -60t115 -29q124 4 245 74.5t198 185.5t77 242q0 86 -44.5 136.5t-127.5 50.5q-102 0 -208 -72q-14 -10 -32 -48t-33 -56.5t-47 -18.5q-34 1 -40 39q4 32 27.5 66t60.5 54q28 70 73.5 180t59.5 136q8 20 18.5 43 t31.5 43t61.5 33.5t107.5 13.5q70 -2 102 -4.5t72 -6.5t66 -6q13 2 34 4q22 2 38 5q0 -48 -19.5 -64.5t-73.5 -19.5q-11 4 -35 4q-34 0 -95 1t-85 1q-76 0 -112 -15.5t-64 -78.5q-48 -115 -80 -201q3 0 37.5 13.5t74.5 23.5t85 10q67 0 120.5 -32t84 -86.5t30.5 -120.5 q0 -118 -51 -226t-140 -191t-200 -129t-225 -46q-112 0 -159.5 45t-51.5 96z" />
<glyph unicode="6" horiz-adv-x="907" d="M47 256q2 76 31.5 164.5t91.5 191t158 212.5q78 88 148 151t113 94t100 68t83 59q16 8 24 8q12 0 26 -8t14 -20q0 -26 -48 -52q-92 -51 -177.5 -123t-152 -145.5t-113.5 -137.5t-81 -114q-40 -54 -85 -166q-45 -110 -48 -206q13 -154 158 -172q70 2 140 52t127.5 129.5 t90.5 164.5t33 149q0 58 -33 87.5t-88 29.5q-81 0 -151 -68q-40 -48 -68 -51q-2 2 -15 7.5t-18 15.5q12 50 57 88t103.5 59t108.5 21q82 0 134 -50q51 -50 54 -154q0 -144 -76 -270t-190 -200t-222 -74t-167 74t-62 186z" />
<glyph unicode="7" horiz-adv-x="907" d="M188 956q5 36 28.5 68t52.5 70t38 74q4 1 14.5 2.5t26.5 1.5q43 0 43 -8q5 0 9 -5q32 9 108 9q38 0 98 -7t82 -8q20 0 33 -4q159 10 191 10q24 -1 24 -23t-72 -124q-10 -13 -50 -71.5t-88 -137.5t-85 -160q-36 -78 -86 -186.5t-87.5 -187t-73.5 -147.5q-36 -70 -70 -118 q-18 -24 -68 -24q-32 0 -37 20q3 6 6 11t7 13q50 72 128 230t147 298.5t147 277.5t161 241q-52 0 -166.5 12.5t-173.5 12.5q-71 0 -115 -21q-12 -26 -39 -72t-57 -71q-25 -20 -45 -24q-23 0 -31 48z" />
<glyph unicode="8" horiz-adv-x="907" d="M0 196q0 73 37.5 132t87 98.5t137 98.5t123.5 91q-5 4 -30 27t-53 59t-48 79t-22 91q6 92 70 157t157.5 97.5t183.5 32.5q89 -1 149 -19q48 -12 48 -40q0 -22 -56 -29q-108 21 -132 21q-115 0 -228.5 -58t-116.5 -162q7 -38 21 -76q15 -36 31.5 -58t44.5 -50 q26 -28 36 -41l416 313q12 0 12 -36q-4 -34 -40 -64q-134 -112 -328 -244q20 -16 60 -59t80 -117t40 -156q-20 -128 -114.5 -203.5t-225.5 -88.5q-16 -2 -49 -2q-133 0 -212 56t-79 150zM80 232q0 -170 204 -176q14 2 42 4t42 4q72 14 126 51t83 88t31 100q0 127 -176 265 q-171 -111 -255.5 -185.5t-96.5 -150.5z" />
<glyph unicode="9" horiz-adv-x="907" d="M8 -116q10 37 80 75q142 82 480 477q70 84 147 236t77 260q0 124 -104 143q-24 7 -51 7q-86 0 -172 -66.5t-147 -163.5q-60 -98 -78 -184q0 -10 -8 -52q0 -52 27 -89t77 -39q113 8 268 176q0 1 12 -13q12 -15 12 -31q0 -2 -2 -8t-2 -8q-34 -70 -130 -130t-182 -62 q-156 32 -168 192q4 130 74 259t186 209.5t248 80.5q100 0 162 -49.5t62 -139.5q0 -189 -115 -391.5t-295 -382.5t-378 -315q-20 -10 -47 -10q-27 1 -33 19z" />
<glyph unicode=":" horiz-adv-x="456" d="M-37 28q0 44 29.5 84t75.5 40q18 0 29 -14t11 -38q0 -42 -32 -77t-72 -35q-41 0 -41 40zM200 600q36 125 112 125q40 1 40 -53q0 -42 -31 -77.5t-73 -35.5t-48 41z" />
<glyph unicode=";" horiz-adv-x="456" d="M-104 -168l54 140l54 140q12 32 37 36h67q36 0 36 -17q0 3 -15 -35l-180 -280q-9 -8 -25 -8q-28 0 -28 16v8zM200 600q36 125 112 125q40 1 40 -53q0 -42 -31 -77.5t-73 -35.5t-48 41z" />
<glyph unicode="&#x3c;" horiz-adv-x="1229" d="M240 324v76l747 344v-80l-655 -304l655 -304v-76z" />
<glyph unicode="=" horiz-adv-x="1229" d="M252 188v68h725v-68h-725zM256 465v67h721v-67h-721z" />
<glyph unicode="&#x3e;" horiz-adv-x="1229" d="M240 -20v76l657 304l-657 304v76l747 -344v-72z" />
<glyph unicode="?" horiz-adv-x="643" d="M12 33q37 119 113 119q17 0 28 -14t11 -38q0 -41 -32 -74.5t-72 -33.5q-42 0 -48 41zM121 293q8 40 10 51q36 89 134.5 192.5t195 205t131.5 190.5q12 42 12 76q0 56 -28 84t-64 32q-20 4 -28 4q-47 0 -91 -26.5t-73.5 -62t-35.5 -56.5q-12 -51 -61 -59q-21 0 -27 40 q23 95 112.5 161.5t191.5 66.5q79 0 131.5 -52t52.5 -132q0 -102 -54 -181.5t-168 -180.5t-172.5 -163.5t-84.5 -150.5q-17 -77 -61 -84q-16 0 -23 45z" />
<glyph unicode="@" horiz-adv-x="1640" d="M125 647q0 152 53.5 294t149.5 252.5t224 172.5t272 62q134 0 261 -44.5t227 -127t158 -198.5t58 -253q0 -118 -60 -247t-163 -218.5t-225 -99.5q-60 3 -99 41.5t-45 103.5q-49 -62 -124.5 -99.5t-155.5 -41.5q-132 6 -189 96t-76 240q2 123 67.5 251.5t175.5 212.5 t238 84q77 0 137 -42t91 -130q6 14 25 63t28 73h107l-195 -604q-7 -48 -13 -88q0 -57 48 -64q99 14 173.5 97t112.5 195t38 212q0 102 -49 195t-131 161t-183 106t-201 38q-125 0 -233.5 -51t-179.5 -114t-111 -114q-29 -42 -54.5 -103t-43 -136.5t-19.5 -157.5 q4 -168 90.5 -310.5t230.5 -227t312 -89.5q161 3 302 81q140 80 234 194h105q-43 -84 -133 -168t-212 -138.5t-253 -54.5q-37 0 -55 2q-164 10 -325 86.5t-270.5 230t-119.5 377.5zM516 545q3 -83 51.5 -139t128.5 -66q74 5 137 51.5t108 117.5t70 151t25 149q0 16 -2 34 q-2 17 -2 25q-10 55 -54 106.5t-102 57.5q-76 0 -162.5 -67t-125.5 -164q-66 -151 -72 -256z" />
<glyph unicode="A" horiz-adv-x="1140" d="M-135 -8q25 72 93 222t142 261q-75 0 -176 -14q-18 3 -21 9t-3 26q2 31 22 40.5t70 16.5h64h88q86 150 248 354t338 355q176 152 306 162q148 0 148 -124q0 -68 -76 -292q-10 -28 -70 -204t-92 -290t-53 -237.5t-21 -243.5q0 -49 -57 -49q-50 0 -55 49q0 6 2 57.5t2 61.5 q-21 80 -71.5 146.5t-169.5 117t-323 59.5q-72 -94 -220 -434q-12 -36 -25.5 -42.5t-89.5 -6.5zM244 549q110 -13 156.5 -19.5t120 -30t146.5 -73.5t129 -129q20 95 57 224t77 252t83.5 254t51.5 161q3 18 8 37t8 37q3 16 3 30q0 48 -40 48q-56 0 -172 -80 q-122 -84 -257 -222t-238 -275t-133 -214z" />
<glyph unicode="B" horiz-adv-x="1024" d="M-144 4q59 100 109.5 209t142 325t157 362t151.5 316q42 84 127.5 146t173.5 62q80 0 130 -56t71.5 -137t21.5 -160q0 -113 -45 -206.5t-109 -151t-118 -72.5q-30 -4 -70 -26.5t-43 -46.5q8 -28 92 -44q96 -14 152.5 -81t56.5 -150q0 -140 -122 -204.5t-282 -76.5 q-150 0 -229 -4q-38 4 -102 4q0 5 14 64q67 0 101 -4q7 0 112.5 6t169.5 17.5t122 40t100 77.5q5 9 12.5 30.5t7.5 53.5q0 63 -36 92t-107 52t-107 48t-41 83q3 81 67 104q21 8 82.5 33t109.5 65t82 110t34 173q0 291 -140 291q-42 0 -89 -30.5t-87 -79t-63 -98.5 q-68 -152 -161.5 -373t-153 -364.5t-109 -255t-74.5 -143.5q-7 -8 -67 -8q-44 0 -44 8z" />
<glyph unicode="C" horiz-adv-x="1100" d="M24 385q3 118 43 245.5t109 237.5q90 142 206.5 268t256 207t281.5 81q110 0 166.5 -60t56.5 -170q-1 -26 -3 -41q-4 -72 -56.5 -161t-120 -163t-111.5 -104q-68 -47 -160 -95t-137 -50q-17 0 -23 20q4 8 4 16q10 38 26 51.5t62 28t80 29.5q84 36 167.5 109.5 t136.5 164.5t53 181q0 72 -33.5 122t-111.5 50q-81 0 -181 -48q-138 -65 -251.5 -181t-191.5 -239.5t-116 -215.5q-54 -118 -60 -281q4 -124 58 -208.5t174 -102.5q22 -4 66 -4q117 0 206 55t138.5 118t97.5 142q18 -1 60 -27q-30 -100 -110.5 -184t-191.5 -134t-223 -50 q-97 0 -168 32q-97 43 -146.5 138.5t-52.5 222.5z" />
<glyph unicode="D" horiz-adv-x="1480" d="M-47 51q-1 65 155 65q40 0 108 -12t136 -12q74 0 149 88t142 221t126 276t134 323q-50 56 -167.5 158.5t-256.5 162.5q-69 27 -119 27q-78 0 -84 -80q12 -86 72.5 -157t138 -123t173.5 -104q-8 -58 -36 -65q0 3 -1 4t-3 1q-108 58 -196 120.5t-154 148t-74 183.5 q2 69 47 108.5t97 43.5q156 0 337 -132.5t271 -220.5q4 14 41 67.5t43 53.5q10 -5 28 -19.5t28 -36.5q-18 -24 -45 -68t-27 -72q134 -144 217.5 -297t83.5 -312q0 -134 -74.5 -223.5t-175.5 -124.5q-133 -43 -367 -43q-102 0 -187 6t-122 10q-8 0 -96.5 -12t-154.5 -12 q-60 0 -93 4q-94 11 -94 55zM512 76q7 0 67.5 -5t116.5 -7q183 4 328.5 54t179.5 179q12 45 12 103q0 90 -30 177t-72 157t-77 115t-73 91q-28 -81 -96 -252.5t-168.5 -362.5t-187.5 -249z" />
<glyph unicode="E" horiz-adv-x="983" d="M-60 184q0 98 44 167.5t113 122t116 87.5t47 63q0 18 -4 23q-64 109 -72 221q2 62 23.5 118t51 101t81.5 113q36 50 109 103.5t163 89t172 35.5q80 0 130 -39t50 -105q0 -54 -40 -112q-42 -58 -77 -103t-96 -121t-71 -92q-6 -6 -24 -12q-12 0 -24 14t-16 35q2 9 12 35 q18 28 93 114t118 147t43 101q0 13 -6 23q-26 31 -108 31q-118 0 -228 -74t-182 -189t-86 -229q3 -49 17.5 -96.5t54.5 -151.5q0 -30 -25 -51t-114 -88t-132 -121t-45 -121q4 -9 5 -23q13 -126 163 -132q91 2 202.5 51.5t206.5 130.5t139 170q16 8 44 8q30 0 44 -4 q-42 -113 -158 -211.5t-248.5 -158.5t-216.5 -62q-141 0 -205 64t-64 128z" />
<glyph unicode="F" horiz-adv-x="1216" d="M-8 528q0 109 104.5 262.5t269 299t341.5 240t313 94.5q176 0 176 -148q0 -78 -40.5 -190.5t-90 -212.5t-128.5 -251.5t-101 -205.5h180q64 0 64 -35q0 -16 -16 -28.5t-40 -12.5h-223q-22 -36 -63.5 -104.5t-88.5 -141t-83 -121.5t-62 -69q0 -8 -33 -8q-14 0 -44.5 4 t-39.5 4q218 238 305 436h-124q-20 0 -28 24q4 20 23 36t53 16h128q17 38 109.5 231t151.5 325t87 216q12 42 12 76q0 76 -92 76q-82 0 -224 -60q-100 -40 -209 -119.5t-207 -175t-176 -189.5q-46 -60 -88 -137t-44 -127q7 -34 24 -40q16 -8 41 -8q74 0 176 86t197.5 204 t149.5 209q8 17 24 17q24 0 28 -64q-26 -64 -91 -154t-149.5 -176t-174 -143t-164.5 -59q-80 0 -104.5 31t-28.5 93z" />
<glyph unicode="G" horiz-adv-x="1024" d="M-33 248q12 226 103.5 440.5t230.5 384t287 266.5t264 97q104 -6 154.5 -70t50.5 -158q0 -84 -30.5 -163t-88.5 -138t-137 -83l-5 73q69 41 125 120.5t56 178.5q-6 78 -46.5 119t-106.5 41q-48 0 -124 -29q-132 -62 -240 -174.5t-183.5 -243.5t-125 -263t-75.5 -246 q-22 -122 -25 -160q7 -150 137 -156q132 0 274 108q144 110 290 296q6 7 28.5 61.5t46.5 88.5q23 34 57 34q18 0 33 -11t15 -28q0 -20 -14.5 -47.5t-51 -85.5t-55.5 -92q-81 -156 -183 -404q-12 -24 -41 -83t-57 -107t-55 -82q-88 -132 -135 -132q-16 0 -24 23q2 18 16 43 t32 52t48 69q14 25 65 113t95 178t61 154l-5 4q-104 -112 -224 -174t-224 -62q-99 0 -156 61t-57 187z" />
<glyph unicode="H" horiz-adv-x="1480" d="M-160 144v28q9 106 163.5 167t312.5 82t344 35q99 175 146 268t92.5 225.5t74.5 302.5q3 21 19.5 32.5t39.5 11.5q39 0 39 -36v-8q-118 -507 -303 -787q68 2 143.5 7.5t159.5 11.5q79 226 158.5 429t138.5 324q22 47 51.5 89t59 68t45.5 26t24 -11q-33 -53 -87.5 -173 t-109.5 -253.5t-104 -266t-71 -212.5l176 51q18 -67 20 -80q-218 -51 -232 -51q-12 -34 -36 -116t-47.5 -165t-40.5 -143q-7 -12 -35 -12q-27 0 -53 12q8 44 26 106t50 162t44 140q-54 -2 -178 -12t-158 -11q-93 -127 -182.5 -210t-198.5 -129t-247 -54q-92 0 -168 33 t-76 119zM-80 144q20 -74 156 -80q134 4 281 84t239 229q-167 -9 -321.5 -38t-254.5 -79t-100 -116z" />
<glyph unicode="I" d="M-148 24q16 56 52 80q34 -22 84 -28q115 2 223.5 148t220.5 339q71 127 134 311q64 184 98 373q4 25 4 61q0 56 -40 56q-30 0 -72 -33t-68 -67q-44 -53 -96.5 -148.5t-89 -190.5t-38.5 -145q0 -33 -30 -61t-62 -31q-8 16 -8 50q0 74 45 195t117 241t155 199t156 79 q111 0 111 -160q0 -136 -61.5 -319t-127.5 -340q-62 -150 -138.5 -270.5t-157.5 -203t-159.5 -125t-144.5 -42.5q-65 0 -107 32z" />
<glyph unicode="J" d="M-272 -408q0 62 24 164q23 86 97.5 210t211 260t326.5 249q52 118 100 242.5t81.5 228.5t53 190t19.5 136q-1 72 -33 72q-49 0 -119 -78t-138.5 -204t-112.5 -267t-46 -263q2 0 3 -1t1 -3q0 -21 -19 -35.5t-46 -17.5q-31 8 -31 37q3 88 16 148t56 204q52 166 129 295.5 t164 199t168 69.5q102 0 102 -156q-1 -250 -279 -860l-405 -808q-71 -172 -211 -172q-112 6 -112 160zM-192 -396q0 -76 40 -88q38 0 88 72t120 214.5t136 278t124 239.5l-4 4q-128 -64 -245 -199.5t-188 -282t-71 -238.5z" />
<glyph unicode="K" horiz-adv-x="907" d="M-131 4q127 310 279 620v13q0 17 -8 49t-9 35q4 11 4 19q14 26 47.5 54t53.5 38q32 57 119.5 242.5t148.5 330.5q0 19 45 19h51q-6 -26 -29 -77t-78 -166t-84 -180t-32 -85q130 78 306.5 225t256.5 264q10 19 51 19q45 0 45 -23v-5q-64 -110 -190.5 -226t-267 -215 t-258.5 -167q-59 -74 -64 -136q30 -58 93 -154.5t149 -206t171 -189.5t155 -106q0 -16 -68 -16q-58 0 -92 20q-68 48 -128 111t-112 132t-131 189t-84 127q-20 -28 -68.5 -134.5t-112 -251.5t-71.5 -161q-12 -12 -49 -12q-16 0 -25.5 1.5t-13.5 2.5z" />
<glyph unicode="L" horiz-adv-x="1140" d="M-268 41q0 88 156 88q48 0 101 -12.5t62 -12.5q44 4 95 61t103.5 152t104.5 221t94 254q53 154 98 259t103.5 189t133.5 132t169 48q136 -14 136 -187q0 -82 -33 -189t-85.5 -210.5t-109.5 -181.5q-18 -20 -44 -28t-85 -8q78 113 136 215.5t94.5 201.5t42.5 187 q0 66 -21 91t-75 25q-50 0 -87 -26.5t-86 -80.5q-84 -124 -158 -326.5t-125.5 -351t-126.5 -272t-194 -195.5v-8q113 -14 273 -20q307 8 452 44q-10 -46 -15 -60t-16 -20t-37 -12q-133 -32 -313 -32q-122 0 -238.5 13t-189.5 31q-87 -44 -191 -44q-124 0 -124 65z" />
<glyph unicode="M" horiz-adv-x="1439" d="M-223 -37q114 109 221.5 271t196.5 337t183 390.5t158 361.5q19 46 49 71.5t58 25.5q69 0 69 -80v-17q-12 -62 -53 -251t-98 -446.5t-77 -353.5q80 98 195 244t227 288.5t225 278t225 257.5q26 38 70 63t82 25q56 0 56 -60q0 -44 -32 -104q-38 -69 -118.5 -219.5 t-163.5 -327t-146.5 -369t-63.5 -328.5q-4 -10 -22 -19t-37 -9q-33 0 -33 24q12 178 73.5 364t133 333t179.5 350t142 285q-154 -173 -289 -332.5t-280 -339.5t-263 -335t-208 -281q-42 -60 -51 -60q-26 0 -36.5 7t-12.5 36q4 13 4 21q37 142 78.5 327t94.5 433t75 348 t40 168q-69 -169 -165.5 -384.5t-204.5 -429.5t-206 -367.5t-164 -191.5q-4 0 -49.5 -2t-61.5 -2z" />
<glyph unicode="N" horiz-adv-x="1065" d="M-232 -43q92 101 185 271t169.5 344t175.5 415t138 321q44 102 96 103q72 0 72 -123q2 -146 4 -323.5t5 -360t7 -391.5h4q46 124 128.5 364.5t136 379.5t107.5 231q10 16 20 16q28 0 28 -68q0 -40 -12 -79q-76 -176 -125 -304.5t-104 -281.5t-84 -230.5t-67 -160.5 q-16 -39 -41 -61.5t-48 -22.5q-35 0 -35 68q-2 104 -6 464.5t-5 507t-1 232.5h-4q-55 -126 -146.5 -347.5t-158 -375t-141 -299.5t-154.5 -262q-26 -40 -76 -40q-20 0 -43 6.5t-25 6.5z" />
<glyph unicode="O" horiz-adv-x="1100" d="M-8 348q17 204 100.5 395t211.5 343t276 244t288 102q56 0 56 -36q0 -19 -10 -22.5t-50 -13.5q-153 -28 -296.5 -136t-256.5 -265t-177 -326t-64 -309q0 -50 10 -101q32 -151 192 -159q138 6 287 108q116 89 224.5 248.5t174.5 330.5t66 289q0 137 -88 156q-21 4 -33 4 q-53 0 -111.5 -35t-112 -107t-91.5 -178q-8 -43 -36 -58.5t-77 -25.5q4 110 78 222t179.5 183t195.5 71q180 -6 180 -232q0 -100 -37.5 -228t-97 -246t-121.5 -198q-106 -134 -193 -213.5t-181 -120t-210 -42.5q-108 0 -169 47t-84 125t-23 184z" />
<glyph unicode="P" horiz-adv-x="872" d="M-96 -68q0 10 2 31t2 37q8 61 39 174.5t75 247.5t82 238q75 208 162 366t170 270q44 60 107 94t125 34q123 0 167.5 -105t44.5 -248q0 -182 -64 -367t-197 -307.5t-322 -124.5q-88 0 -88 44q3 23 20 27.5t68 4.5q120 0 216 71t163.5 205t103.5 316q12 64 12 135 q0 116 -42 192.5t-109 76.5q-97 0 -197 -160q-56 -90 -104 -177.5t-90 -178t-74 -184t-51 -183.5q-4 -16 -29 -125.5t-39.5 -166t-29.5 -109t-27 -84.5q-44 -124 -72 -124q-24 0 -24 80z" />
<glyph unicode="Q" horiz-adv-x="1100" d="M-223 60q1 80 115 80q36 0 149 -19q62 7 202 96q141 89 245 174q104 67 203 163t178 205t125 215t46 190q0 163 -164 192q-28 4 -44 4q-88 0 -190 -57t-193 -147t-157 -189t-87 -175q-6 -23 -29 -28q-13 0 -27.5 20t-17.5 44q9 26 9 24q56 126 167 262t253 227t284 91 q118 0 201 -70t83 -203q0 -101 -61 -239q-54 -122 -161.5 -252.5t-236.5 -244.5t-257 -199.5t-220 -123.5q84 -26 344 -32q206 8 312 16q0 -3 2 -12.5t2 -15.5q0 -22 -11 -35t-17 -17q-42 0 -143 -4t-161 -4q-236 0 -432 45q-146 -45 -217 -45q-94 0 -94 64z" />
<glyph unicode="R" horiz-adv-x="796" d="M-68 41q0 42 17 112.5t50.5 183.5t41.5 142q14 39 65 188t91.5 252t91.5 203t115 182q92 120 208 120q91 0 142 -63t68.5 -150t17.5 -183q0 -422 -408 -559q-6 -2 -34 -10t-40 -16t-14 -23q8 -16 37 -43q60 -54 165.5 -185.5t121.5 -167.5q8 -34 8 -44q0 -44 -35 -44 q-24 0 -49 40q-77 138 -129.5 202t-138.5 146q-54 51 -60 100q8 74 104 112q148 61 227 131.5t111 168.5t38 256q0 54 -16 112t-48.5 99t-79.5 41q-66 0 -135 -101q-50 -69 -94.5 -148t-83 -166t-74 -191t-61.5 -210q-30 -125 -44 -183.5t-40.5 -146.5t-54.5 -146t-54 -58 q-9 0 -15 6q-12 6 -12 41z" />
<glyph unicode="S" horiz-adv-x="1024" d="M-129 178q0 10 4 35q23 100 130 145.5t259 45.5q182 0 328 -48q0 -59 -16 -67q-236 39 -332 39q-92 0 -172 -25q-38 -12 -75.5 -46.5t-37.5 -72.5q0 -46 74 -80q47 -24 203 -32q183 8 268 24q128 21 200 88t72 152q0 104 -88 168q-47 36 -149 84t-153 77.5t-91.5 82 t-40.5 132.5q0 28 6 60q18 102 79 190.5t153 155t198 102.5t209 36q90 0 135.5 -41t45.5 -107q0 -32 -19 -84q-36 -68 -114 -132t-196.5 -112t-266.5 -64q0 36 12 68q89 12 210.5 64t209.5 120t88 132q-6 84 -105 84q-52 0 -120 -23.5t-131.5 -57t-102.5 -59.5 q-76 -54 -143.5 -138.5t-69.5 -170.5q4 -74 49 -121.5t119 -81.5t152 -70t116 -77q48 -50 67 -82.5t25 -106.5q0 -139 -98 -221t-241 -114.5t-293 -32.5q-143 0 -250 44.5t-107 137.5z" />
<glyph unicode="T" horiz-adv-x="1065" d="M140 1052q0 50 89 96t229 85t252.5 62t305.5 61q29 6 48.5 9t35.5 7t40 16q40 36 80 36t40 -44q0 -36 -23 -49q-20 -10 -30.5 -15.5t-20.5 -15.5t-21 -34t-25 -70q-27 -88 -96.5 -264.5t-157.5 -378.5t-163 -359.5t-111 -209.5q-16 -30 -63 -31q-18 0 -45.5 3t-34.5 3 q281 405 619 1337q-8 -3 -182 -38.5t-313.5 -67.5t-256.5 -72t-117 -74q4 -68 242 -184q-13 -43 -61 -51q-115 52 -187.5 105.5t-72.5 137.5z" />
<glyph unicode="U" horiz-adv-x="1251" d="M51 692q0 94 70 236q119 260 287 408q92 84 176 84q68 0 109.5 -41t41.5 -119q-4 -80 -61.5 -215.5t-175.5 -375t-176 -368.5t-74 -221q206 124 553 504q64 70 153 161t157.5 165.5t114.5 136t62 108.5q6 18 29 31.5t43 13.5q24 0 24 -24q0 -14 -8 -27 q-8 -18 -108 -210.5t-165 -334.5t-114.5 -299t-52.5 -285q0 -20 -12 -26.5t-32 -8.5q-20 -1 -56 -5q0 102 31.5 223t85.5 255q55 134 135 314l-4 4q-54 -60 -135 -149t-186.5 -200t-216 -214t-194.5 -162q-98 -67 -152 -67q-58 0 -65 59q7 43 25 101q40 113 94 230.5 t146 301.5q90 184 142 296q52 114 78 204q20 60 21 96q0 28 -16.5 46t-44.5 18q-66 0 -144 -80q-98 -99 -180 -255q-82 -155 -96 -257q0 -22 -30 -45t-58 -27q-20 8 -21 20z" />
<glyph unicode="V" horiz-adv-x="1065" d="M41 727q2 13 2 25q22 104 54.5 189t68.5 148t73 113t64 86q44 64 105.5 100t119.5 36q108 0 109 -116q0 -72 -25 -147t-52.5 -127t-87.5 -158t-81 -155q-18 -42 -65.5 -132.5t-77.5 -151.5t-55 -127.5t-37 -137.5q0 -88 112 -96q88 8 136 40q150 92 275.5 239.5t217 310 t150.5 306.5t81 232q3 21 30.5 50.5t45.5 29.5q12 0 12 -32q-10 -138 -90 -329t-202.5 -378.5t-260 -326t-259.5 -185.5q-90 -33 -160 -33q-102 0 -148 68q-16 24 -24 92q2 70 36 159.5t106 231.5t83 166q12 25 77 152t109.5 220t61.5 150q8 33 8 49q1 56 -57 56 q-44 0 -92 -52q-57 -69 -107 -163.5t-82.5 -177.5t-66.5 -175q-12 -26 -44 -51t-48 -25q-8 0 -15 27z" />
<glyph unicode="W" horiz-adv-x="1556" d="M16 47q8 41 17 65q34 78 102 217.5t153 311.5t149.5 313.5t102.5 249.5q14 38 15 84q0 60 -51 60q-60 0 -127 -76q-56 -66 -94 -132.5t-61 -129.5t-41.5 -136.5t-20.5 -85.5q-6 -22 -31.5 -43t-48.5 -24q-14 0 -20 39q2 8 4 27t4 28q42 168 110.5 299.5t153.5 221.5 q92 96 192 96q58 0 93 -36t35 -100q0 -54 -19 -108q-56 -130 -111.5 -251t-147 -316.5t-134 -287t-92.5 -198.5q576 585 892 961q24 28 48 28q36 0 36 -40v-19q-37 -80 -113.5 -232.5t-130.5 -263t-98 -216t-65 -189.5q-5 -24 -5 -29q0 -52 72 -59q43 3 92.5 20.5t83.5 38.5 q121 90 241.5 251.5t218.5 345.5t155 339t57 225q0 30 19 47t41 17q32 0 32 -16q0 -117 -71 -308.5t-189 -398t-256.5 -371t-263.5 -229.5q-78 -41 -156 -41q-72 0 -118 38t-50 114q8 70 23 112q26 60 59.5 127t61 123t71 151t81.5 183q-56 -61 -179.5 -192t-179 -190.5 t-198.5 -213.5t-171 -184q-66 -64 -124 -64q-42 0 -48 47z" />
<glyph unicode="X" horiz-adv-x="983" d="M-131 -8q60 38 182.5 158.5t271.5 283.5t257 291q0 55 -2 271t-2 224q0 67 -5 95.5t-26 28.5q-20 0 -74 -52q-83 -88 -155 -196q-14 -28 -36 -35q-18 0 -24 51q44 130 209 272q61 48 107 48q51 0 77.5 -40t26.5 -84q-8 -118 -16 -405q4 -25 4 -67h4q129 180 281.5 331 t234.5 185l2 -12q2 -11 2 -27q0 -55 -43 -89q-72 -51 -161.5 -141t-174.5 -192.5t-149 -194.5q0 -460 112 -680q0 -11 -41 -16q-65 8 -75 37q-72 229 -88 559q-152 -202 -535 -588q-6 -6 -40.5 -13t-68.5 -7q-41 0 -55 4z" />
<glyph unicode="Y" horiz-adv-x="1140" d="M72 92q5 92 96 268q238 509 308 669.5t83 238.5q0 6 2 20t2 20q-1 44 -39 44q-24 0 -84 -35q-35 -34 -91.5 -120t-103.5 -195.5t-61 -213.5q-20 -39 -100 -67q10 136 63 268.5t121 231.5t119 143q87 72 153 72q54 0 85 -38t31 -98q0 -40 -13 -67q-103 -250 -195.5 -462.5 t-158 -353.5t-78.5 -170t-23 -63q-22 -64 -24 -76q0 -16 16 -24q24 2 117 64q120 96 213 173.5t230.5 214t251.5 290.5t161 298l80 8q-63 -144 -357 -835q-94 -211 -156 -345t-127 -249t-118 -172q-25 -35 -71 -35q-12 0 -17 20q32 66 123 243.5t157.5 312t129.5 267.5 t119 265l-4 8q-48 -52 -152 -155t-210 -202t-154 -130q-26 -18 -57 -39t-60 -36.5t-65 -26.5t-74 -11q-60 6 -68 80z" />
<glyph unicode="Z" horiz-adv-x="831" d="M-228 -303q8 103 62 196t122 158.5t136 112.5q72 41 96 41t25 -29q-97 -70 -174 -149t-125 -161t-58 -155q0 -70 21 -98.5t67 -28.5q64 0 155 55t157 129q82 92 141 176t97 181t38 199q0 52 -21 83t-53.5 46t-71.5 23t-83 16q-35 6 -43 67q7 56 29 78q44 44 154 126 t176 138.5t115.5 134.5t49.5 172q0 74 -36 103t-105 29q-29 0 -84 -9q-64 -16 -130.5 -58t-128.5 -98t-102 -92.5t-54 -42.5q0 30 13 73t23 55q100 123 232 193.5t248 70.5q103 0 161.5 -59.5t58.5 -176.5q-4 -102 -77 -202t-163 -176t-192 -151t-108 -91q0 -9 53 -13.5 t101 -17t87 -58t39 -135.5q0 -148 -65 -300.5t-174 -280t-237 -211.5q-100 -52 -195 -52q-177 0 -177 189z" />
<glyph unicode="[" horiz-adv-x="755" d="M-28 -500l484 1420l177 508h266l-23 -64h-200l-480 -1420l-132 -376h204l-20 -68h-276z" />
<glyph unicode="\" horiz-adv-x="567" d="M-56 1480h89l547 -1420l44 -107h-92l-544 1419z" />
<glyph unicode="]" horiz-adv-x="755" d="M-168 -500l20 68h195l485 1419l132 373h-203l14 68h281l-488 -1420l-172 -508h-264z" />
<glyph unicode="^" horiz-adv-x="1229" d="M184 404l375 749h88l377 -749h-92l-328 644l-328 -644h-92z" />
<glyph unicode="_" horiz-adv-x="1024" d="M0 -148h1032v-128h-1032v128z" />
<glyph unicode="`" horiz-adv-x="456" d="M72 1132h128l220 -272h-72z" />
<glyph unicode="a" horiz-adv-x="831" d="M-64 236q0 252 336 416q145 74 273 73q50 0 106.5 -14.5t56.5 -50.5v-19q-14 -23 -24 -33q-98 52 -160 52q-40 0 -102 -20t-134 -59t-132 -93q-130 -116 -136 -216q0 -8 -1 -22q-1 -12 -1 -18q0 -160 78 -168q46 4 92 40q160 131 336 404q18 30 33 37.5t47 7.5 q33 -1 33 -13q-1 -5 -9 -28q-88 -180 -208 -436q82 18 168 78t200 170q20 0 23 -44q0 -30 -75.5 -92t-171.5 -121t-132 -71q-26 -8 -51 -8q-55 0 -61 40q7 33 16 56q14 40 23 63.5t13 32.5l-4 4q-12 -13 -57.5 -65.5t-81.5 -83.5q-35 -31 -81 -47q-6 0 -21 -2t-27 -2 q-164 0 -164 252z" />
<glyph unicode="b" horiz-adv-x="755" d="M-80 236q0 52 24.5 80t95 93t85.5 107q41 94 87 206t86 212.5t82.5 209t90.5 228.5q15 40 40 64t44 24q29 0 29 -40q0 -22 -12 -60q-46 -134 -131 -317.5t-153 -330t-125 -296.5t-87 -300q0 -62 59 -69q61 6 123 47.5t106 97.5q0 6 -12 32.5t-16 64.5q0 23 -4 39 q3 102 46.5 216t105.5 156q28 20 65 21q75 -1 75 -109q0 -194 -159 -403q13 -7 43 -13q36 2 69 20t54 35.5t65 55.5q20 21 25 21q14 0 14 -35q0 -70 -88.5 -119t-162.5 -53q-45 9 -64 23q-71 -66 -137 -110t-148 -50q-143 0 -143 120q0 86 55 216l-4 4q-12 -15 -32.5 -40.5 t-40.5 -43t-38 -17.5q-12 1 -12 13zM416 332q2 -12 4 -31t4 -29q50 54 89.5 159t39.5 169q-1 43 -17 43q-19 0 -47 -50.5t-49.5 -124t-23.5 -136.5z" />
<glyph unicode="c" horiz-adv-x="643" d="M-53 236q0 35 2 53q8 84 63.5 162.5t135.5 140.5t159 100q73 33 125 33q61 0 96 -28.5t35 -76.5q0 -54 -29.5 -123t-72.5 -77q-2 2 -17 7t-20 21q8 22 34 76t30 80q0 26 -24 39t-48 13q-20 0 -52 -9q-71 -30 -148.5 -94t-132.5 -148.5t-59 -172.5q0 -171 124 -181 q118 24 215 86.5t233 174.5h4q9 0 14.5 -7t5.5 -12q0 -41 -16 -53q-110 -106 -232 -181t-247 -75q-27 0 -74 8q-46 11 -75 74.5t-29 169.5z" />
<glyph unicode="d" horiz-adv-x="907" d="M-41 192q0 144 72.5 264t197.5 190.5t275 70.5q36 123 71.5 221t80.5 197t104 205q28 52 64.5 86t64.5 34q43 0 43 -84q0 -39 -20 -147q-24 -104 -75.5 -257t-144 -349.5t-221.5 -390.5q-2 -30 -10 -88q0 -66 47 -72q48 12 96 41t94 67t94 80q64 68 84 68q8 0 8 -44 q0 -26 -16.5 -47t-39 -39t-48.5 -38q-74 -62 -113 -92.5t-95.5 -57t-110.5 -26.5q-46 0 -60.5 35t-19.5 93q4 12 4 32q-12 -8 -72.5 -60t-102.5 -74t-94 -22q-158 0 -157 204zM28 228q0 -162 88 -168q110 6 269 192q10 11 41.5 151.5t48.5 248.5q-12 8 -43 8q-50 0 -119 -34 t-134 -94.5t-107 -139t-44 -164.5zM496 408l4 -4q72 98 152 280t136 365t64 287h-4q-66 -92 -139 -252t-129.5 -339t-83.5 -337z" />
<glyph unicode="e" horiz-adv-x="643" d="M-76 260q0 122 110 247t250 189q76 28 120 29q54 0 91 -27q37 -28 37 -78q0 -182 -154 -269t-370 -87q0 -32 -4 -51q3 -79 36.5 -118t115.5 -39q92 8 193 70t255 194h4q12 0 12 -31q0 -33 -24 -57q-82 -70 -151 -120t-164 -89t-201 -39q-89 6 -122.5 78t-33.5 198z M24 336q10 -2 32 -4t32 -4q76 5 160 36.5t142 91.5t58 140q0 60 -63 60q-74 0 -180 -84q-161 -138 -181 -236z" />
<glyph unicode="f" horiz-adv-x="567" d="M-135 -475q0 47 4 71q14 84 43.5 186t84 256t132.5 366h-4q-36 -40 -99.5 -106t-89.5 -83l-4 -2q-16 2 -16 51q0 8 5.5 16t18 23t13.5 17q18 20 97 96t118 124q12 13 25 42.5t29 71.5t30 73q20 62 64.5 195.5t95.5 279.5q52 144 76 190q33 54 39.5 63t27.5 9 q25 -6 25 -40q0 -9 -4 -31.5t-4 -32.5q-16 -84 -143 -414t-210 -530q-42 -104 -104.5 -280t-112.5 -329t-58 -207q0 -12 -2 -30t-2 -22q0 -44 27 -44q29 0 57 44q56 79 90 146t52 129.5t33 146.5t29 159q34 12 112 55.5t176 131.5q8 8 12 8q16 0 17 -35q-1 -27 -21 -49 q-42 -44 -231 -156q-2 -90 -26.5 -197.5t-61.5 -199.5q-37 -91 -76 -143q0 -7 -45 -56q-44 -50 -76 -64q-38 -12 -68 -12q-76 0 -75 113z" />
<glyph unicode="g" horiz-adv-x="831" d="M-68 232q0 82 33 153t105.5 137t189.5 125q170 84 276 84q33 0 60.5 -5.5t47.5 -13.5t37 -17t36 -19q8 0 8 -24t-9 -44q-10 -20 -28 -24q-80 80 -164 80q-114 0 -250 -81t-214 -196q-44 -78 -52 -178q8 -141 108 -141q76 20 133.5 75t130 154t108.5 135q15 18 33 40.5 t38 37t41 14.5q16 0 16 -16v-16q-52 -117 -83.5 -193.5t-64 -159.5t-56.5 -143q89 76 230.5 196t162.5 140q10 0 10 -29q-1 -45 -27 -71q-57 -54 -179.5 -156t-181.5 -155t-87 -97q-23 -36 -71.5 -154t-100.5 -202q-36 -56 -68 -56q-38 0 -44 92q10 69 40.5 132t75 124.5 t92.5 127.5q18 28 36.5 65.5t31 67t32.5 82.5t44 116l-4 4q-156 -227 -304 -227q-168 0 -168 236z" />
<glyph unicode="h" horiz-adv-x="907" d="M-84 256q0 35 43 76q38 34 68 61t58.5 57t52.5 65t38 73q47 111 106.5 253.5t100.5 238.5t66 154t87 202q18 44 44 44q20 0 30 -17t10 -39v-9q-35 -104 -101.5 -259t-149 -333.5t-160.5 -349.5t-121 -277q46 46 146 143t226 210t192 151q54 30 83 31q16 0 28.5 -11 t12.5 -32v-12q-36 -94 -144 -327.5t-108 -256.5q0 -6 8 -6q20 0 86 46t140 105.5t122 98.5h4q4 0 5 -37q0 -46 -37 -76q-250 -184 -336 -219q-2 0 -19 -2t-28 -2q-51 0 -57 43q8 59 36 109q52 102 107 221.5t82 181.5q6 1 6 29q0 8 -6 8t-41 -20q-115 -88 -243.5 -211 t-218 -217.5t-126.5 -135.5l-24 -8q-40 0 -40 41q0 19 13 51q28 74 53.5 141t36.5 95l-44 -44l-44 -44q-2 -3 -6.5 -8.5t-12.5 -8.5q-2 2 -9 7.5t-11 11t-4 14.5z" />
<glyph unicode="i" horiz-adv-x="456" d="M-76 268q4 30 117 136q32 32 66 65q35 33 49 55q11 10 40.5 79.5t47.5 113.5h96q-15 -34 -45.5 -100.5t-71.5 -157t-86.5 -193t-60.5 -135.5q-4 -1 -12 -31q0 -6 12 -12q54 18 105 53t128 98t95 77q2 0 8 4t8 4q16 0 16 -27q0 -33 -24 -57q-162 -142 -332 -228 q-12 -4 -24 -7t-25 -6t-27 -3q-45 0 -45 32q0 46 17.5 97t44.5 104t55 111l-4 4l-105 -104q-4 -2 -9 -6t-9 -6q-9 4 -17 4q-8 8 -8 36zM289 908q4 8 12.5 42t22.5 50t44 16q17 0 28.5 -19t11.5 -49q0 -88 -76 -88q-37 0 -43 48z" />
<glyph unicode="j" horiz-adv-x="532" d="M-148 -532q0 72 24 133.5t70 150.5q46 88 66 140q5 16 49.5 142t94.5 266q50 138 84 224q-47 -50 -136.5 -143t-136.5 -137q-11 -10 -23 -16q-16 0 -16 36q0 20 4 25q45 60 123 140.5t144 151.5q67 71 113 136h84q-32 -101 -59 -177t-71.5 -197t-77 -209t-40.5 -110l4 -8 q16 14 126 116t218 200h4q24 0 24 -35q-6 -28 -15.5 -41.5t-30.5 -29.5q-22 -16 -38 -30q-16 -18 -108 -97t-160 -145q-67 -66 -88 -114q-22 -46 -51.5 -133t-53 -154.5t-47.5 -107.5q-16 -33 -48 -33t-32 56zM344 908q8 30 14 53t21 39t45 16q22 0 33.5 -19t11.5 -49 q0 -38 -21.5 -63t-60.5 -25q-37 0 -43 48z" />
<glyph unicode="k" horiz-adv-x="872" d="M-92 260q0 8 8 24q18 26 82 83t94 87t48 66q102 234 400 876q26 64 72 64q24 0 25 -40q-1 -13 -9 -52q-26 -81 -54 -143.5t-84.5 -169.5t-98.5 -195q-75 -152 -231 -524l4 -4q156 210 336 340q74 50 133 49q49 0 78 -32t29 -89q0 -196 -279 -340q-26 -13 -64.5 -26.5 t-48.5 -25t-12 -44.5q0 -16 -4 -29q0 -38 15 -57.5t57 -21.5q12 4 32 4q50 6 157 77t212 166q13 17 27 17q16 0 16 -27q0 -43 -29 -65q-34 -29 -91 -78t-109.5 -84t-108.5 -56.5t-114 -21.5q-75 0 -108.5 41t-39.5 119q8 58 12 71q12 36 40 52.5t76 30.5t68 26 q216 130 216 268q0 41 -36 41q-54 -1 -163 -97q-45 -39 -131.5 -130.5t-175 -196t-142.5 -180.5l-15 -21t-20 -23t-20 -9t-21.5 8.5t-11.5 19.5q0 27 39 113q60 125 88 203l-4 4q-6 -6 -32.5 -36t-43.5 -46.5t-35 -26.5q-28 7 -28 41z" />
<glyph unicode="l" horiz-adv-x="532" d="M-72 268q0 24 16 44q22 25 76 71t85 78.5t51 70.5q20 40 66.5 170t74.5 201q46 140 85.5 253.5t105.5 287.5q6 24 44 24q36 0 36 -36v-8q-4 -40 -39 -140t-113 -306.5t-96 -256.5q-82 -219 -216 -621q0 -10 25 -16q11 4 27 4q60 16 166 100t166 136q24 0 24 -31 q0 -33 -24 -57q-96 -98 -206 -169t-214 -71q-62 0 -68 41q4 4 4 10q6 39 27 111t39 130t26 84v5q-32 -34 -82 -86.5t-55 -54.5q-7 0 -15 -8q-16 4 -16 40z" />
<glyph unicode="m" horiz-adv-x="1251" d="M-72 252q0 50 76 116q40 32 79 73.5t57 62.5q12 16 36 80.5t47 98.5t61 34q36 -1 36 -21q0 -7 -3 -16.5t-6.5 -17.5t-7.5 -19q-4 -6 -37.5 -78.5t-83.5 -181.5t-70 -151v-4q238 288 441 440q72 60 123 59q41 0 41 -43q-1 -18 -13 -47q-128 -233 -180 -397v-4 q118 136 257 274t219 190q42 24 67 25q45 0 45 -45q0 -12 -3 -24t-10 -29t-11 -31q-36 -79 -85 -194t-78 -180.5t-61 -129.5l8 -8q46 16 92 43.5t86.5 59t89 76t76.5 69.5q16 -10 17 -33q-1 -56 -93 -119q-65 -46 -161.5 -107t-138.5 -73h-25q-63 0 -67 41q4 7 4 19 q18 46 66 149t91.5 193t67.5 138q0 1 5 20.5t5 27.5q-14 -8 -31.5 -18.5t-31.5 -20.5q-102 -96 -188 -188.5t-304 -336.5q-24 -24 -60 -24q-24 0 -28 24q4 8 4 17q22 72 55.5 149t77 168.5t95.5 200.5q0 5 2 10t2 7q0 12 -8 12q-4 0 -13 -8q-62 -48 -130 -118t-172 -187.5 t-155.5 -173.5t-101.5 -97q-4 -4 -20 -4q-36 0 -36 24v13q15 49 53.5 144.5t62.5 150.5l-52 -52t-51 -52q-3 0 -13 -9q-16 0 -16 33z" />
<glyph unicode="n" horiz-adv-x="907" d="M-80 260q0 30 37 64q21 26 77 78t91 94q12 16 37 81t52.5 100t74.5 35q23 -6 23 -28q0 -12 -17 -44t-19 -36q-26 -56 -62 -135t-66 -145t-60 -128h8q44 45 141.5 141.5t216 203.5t179.5 143q4 2 25 15.5t34.5 19.5t28.5 6q19 0 35 -12.5t16 -32.5q0 -24 -29 -82t-35 -74 q-142 -318 -184 -412q0 -2 -8 -20q0 -4 16 -12q16 8 21 8q41 16 147 100t168 136h8q12 0 13 -21q0 -31 -11 -49q-10 -18 -38 -41q-71 -62 -172.5 -128.5t-159.5 -84.5q-12 -4 -43 -4q-51 0 -57 41q21 82 55.5 162.5t76 161.5t97.5 192q6 15 6 27q0 8 -6 8q-11 0 -29 -12 q-78 -52 -149 -117.5t-147 -146t-156 -165t-148 -143.5q-8 -8 -32 -8q-36 0 -36 28v17q34 86 111 291q-21 -23 -56 -60.5t-51 -48.5l-4 -4q-20 7 -20 41z" />
<glyph unicode="o" d="M-72 244v20q4 158 90 266.5t171 157.5q85 50 127 64q12 4 32 4q39 0 39 -35q-1 -32 -27 -37q-176 -52 -264 -178t-92 -266q8 -63 14 -91t27 -52.5t63 -28.5q54 2 120 50.5t96 94.5q-36 41 -44 143q4 100 46 195.5t130 95.5q48 0 60 -29q12 -30 12 -86q0 -63 -18 -122.5 t-43 -105.5t-35 -64q6 -2 17 -6t20 -6q36 2 74 24t72.5 51t36.5 29q8 0 8 -33q0 -63 -72 -101t-140 -42q-51 10 -61 12q-78 -86 -145.5 -127.5t-145.5 -44.5q-82 0 -125 56.5t-43 191.5zM348 364q8 -62 29 -88q34 67 59 140.5t25 115.5q-1 36 -13 36q-36 0 -66 -64t-34 -140 z" />
<glyph unicode="p" horiz-adv-x="948" d="M-100 -524q0 64 32 205t77 297.5t88 283t63 166.5l-4 4q-26 -26 -99 -102t-94 -94q-2 0 -10 -8q-10 0 -17.5 10.5t-7.5 25.5q0 30 21 48q29 32 110 108q81 74 113 112q28 30 57 73t35 67q6 28 21 34t47 6q24 0 28 -4q-12 -41 -24 -81.5t-24 -81.5l4 -5q22 36 107 111.5 t165 79.5q168 1 168 -163q0 -46 -12 -99q-22 -108 -96 -205.5t-120 -142.5q84 0 179 57.5t205 149.5h4q16 0 16 -31t-29 -61q-215 -198 -495 -208q-48 -32 -128 -32q-46 0 -69 14t-43 50q0 36 72 36h24q48 0 64 -4q21 3 33.5 3.5t15.5 0.5q72 55 137.5 131.5t107.5 165.5 t42 175q0 88 -68 88q-42 0 -92 -32q-60 -40 -124 -111t-103 -126t-54 -80q-54 -91 -90.5 -192t-58.5 -199t-47 -241t-31 -171q-9 -33 -29.5 -58.5t-38.5 -25.5q-28 0 -28 56z" />
<glyph unicode="q" horiz-adv-x="831" d="M-76 244q0 158 130 270t310 178q127 33 189 33q159 -15 159 -78q0 -20 -9 -41.5t-19 -21.5q-8 2 -33.5 23.5t-59.5 34.5q-33 14 -91 14q-102 -11 -217 -75.5t-193 -153.5t-82 -167q0 -109 20 -151.5t72 -44.5q58 0 126.5 66t160.5 184t121 147q50 55 84 55q13 0 19.5 -3 t8.5 -5q-40 -104 -94 -218t-138 -275t-125 -241q-41 -82 -83 -178q-28 -74 -28 -92q8 -8 20 -8h16q51 16 105.5 101t96.5 192t58 183q4 22 10 62t11 42q7 14 31 32q32 20 160 117t136 99q14 0 15 -35q-1 -31 -23 -53q-25 -24 -117.5 -96t-117.5 -93q-22 -20 -29.5 -46 t-11.5 -70.5t-8 -61.5q-14 -60 -40 -132.5t-78 -157.5t-126 -142q-54 -37 -116 -37q-66 0 -80 76q6 46 28 108q30 61 82 169.5t104 216.5t82 170l-4 4q-20 -16 -59 -52t-67 -57.5t-63 -36t-75 -14.5q-94 0 -131 77t-37 183z" />
<glyph unicode="r" d="M-84 260q0 20 6 29t31 35q96 90 157.5 186t81.5 142q-32 22 -32 83q0 51 45 70q4 0 11.5 2t11.5 2q37 0 45.5 -22.5t19.5 -82.5h51q152 0 152 -108q0 -32 -11 -63.5t-34 -81t-27 -60.5q-21 -48 -59.5 -131.5t-55 -122t-16.5 -49.5l10 -8q26 4 97 53.5t133.5 99.5t90.5 74 q3 4 9.5 10.5t13.5 6.5q13 0 13 -12v-32q0 -30 -27 -48q-102 -88 -153.5 -129t-139.5 -87q-60 -32 -108 -32q-42 0 -56 44q17 53 39.5 109.5t62.5 145t69 156t49 124.5q0 4 2 12.5t2 12.5q0 40 -76 40q-14 0 -39.5 -4t-32.5 -4q-102 -185 -316 -401q-20 5 -20 41z" />
<glyph unicode="s" d="M-68 264q0 34 21 52q229 200 407 428q6 8 17 58.5t31 82t67 31.5q33 0 33 -44q0 -32 -24 -75t-60 -76q-5 -5 -8.5 -87t-3.5 -89q-2 -28 -3.5 -47t-4 -42.5t-4.5 -55.5q-9 -112 -37.5 -183t-46.5 -96q88 28 188 93.5t137 105.5q5 8 11 8q8 0 8 -31q0 -28 -2.5 -36.5 t-14.5 -20.5q-61 -47 -180 -121.5t-211 -85.5q-22 -2 -59 -16.5t-52 -19.5t-49 -5q-139 0 -139 59q1 29 35 29q16 0 30.5 -2t36 -5t45.5 -5q66 8 100 24q68 33 91 170.5t37 337.5q-24 -29 -77 -82t-149 -146.5t-102 -99.5q-30 -30 -51 -40q-17 4 -17 32z" />
<glyph unicode="t" horiz-adv-x="532" d="M-72 264q0 25 4 33q8 14 89 92.5t123 121.5t56 73q6 18 43 109.5t60 150.5h-135q-35 0 -39 32q2 16 12.5 28t26.5 12h172q11 36 36.5 113t62.5 168.5t65 123.5q29 27 45 27q23 0 23 -44q0 -56 -35 -125l-70 -138t-35 -125h123q8 0 8 -23q0 -49 -47 -49h-112 q-178 -390 -292 -704q0 -6 -8 -24q0 -22 31 -28q20 4 70 24q72 42 148.5 104t115.5 96q16 20 35 20q12 0 12 -29t-24 -59q-16 -20 -98 -81t-169 -111t-133 -56q-96 0 -96 47q0 43 15 84t46 98.5t49.5 95t24.5 79.5l-2 4q-40 -39 -106.5 -101.5t-82.5 -74.5q-3 3 -7.5 11.5 t-4.5 24.5z" />
<glyph unicode="u" horiz-adv-x="907" d="M-68 260q0 32 21 52q28 28 86.5 86t85.5 86q20 24 37.5 55.5t38.5 79t35 73.5q15 25 28 25q64 -1 64 -9q-16 -68 -49 -139t-87 -169t-80 -152t-48 -117q0 -9 16 -15q22 8 45 24q72 54 169 140t187 176q89 90 147 160q38 48 51.5 64.5t20 22t21.5 14.5h10q14 0 33.5 -2.5 t27.5 -2.5q-32 -82 -108 -236.5t-107 -219.5q-31 -66 -61 -156q0 -11 16 -16q10 2 48 20q72 44 164 117.5t140 114.5q8 0 9 -33q0 -61 -46.5 -99t-150.5 -104q-40 -26 -79.5 -51.5t-77.5 -41t-78 -15.5q-47 0 -53 49q12 64 39 125.5t73 149.5t68 140l-4 5q-84 -87 -145 -146 t-125 -114t-126 -102t-116 -83q-34 -20 -80 -20q-48 0 -48 28q0 7 2.5 14.5t2.5 12.5q6 14 58.5 143.5t68.5 157.5l-4 4q-21 -28 -59.5 -73t-59.5 -55q-21 0 -21 32z" />
<glyph unicode="v" horiz-adv-x="831" d="M-80 260q0 17 9 30.5t28 31.5t23 22q132 126 176 196q7 11 39.5 81.5t48.5 86.5q54 0 76 -8q-27 -66 -63 -147t-87.5 -192t-73.5 -161q-9 -14 -23.5 -45t-16.5 -59q0 -39 56 -45q8 5 23 5q93 16 197 128q78 82 104 136q2 2 12 60t36 120q26 64 41 98t44.5 68t67.5 34 q19 0 19 -16q0 -91 -34 -175.5t-102 -219.5q7 -41 20.5 -57t51.5 -23q52 7 96 35q38 22 69 51t44 33q10 0 10 -35q1 -52 -55 -84q-110 -74 -180 -74q-88 6 -111 84q-36 -46 -117 -123.5t-172 -103.5q-54 -8 -80 -8q-52 0 -84 26t-32 78q0 41 16 86.5t60 153.5l-5 4 q-20 -23 -63.5 -66t-51.5 -51q-16 8 -16 45z" />
<glyph unicode="w" horiz-adv-x="1175" d="M-76 272v17q4 13 56 60t83 77.5t72 85.5q16 34 45.5 96t47.5 88q14 24 32 25q44 -1 60 -9q-38 -84 -74.5 -162t-73 -162t-64.5 -154t-52 -142q8 -12 16 -20q24 4 40 24q109 92 212.5 214.5t224.5 293.5q4 10 17.5 24.5t37.5 14.5q29 -1 29 -35q0 -56 -19 -113t-61 -144 t-60.5 -130t-27.5 -100q0 -9 -4 -21q1 -20 31 -28q30 8 36 8q42 15 99.5 65.5t104 105.5t52.5 77q56 284 148 360q30 24 45 24q23 0 23 -48q0 -54 -20 -112t-61 -137t-51 -99q0 -12 -4 -23q6 -39 22.5 -55t53.5 -23q87 25 176 97q2 1 13 8.5t16 7.5q10 0 10 -25 q0 -70 -81.5 -114.5t-170.5 -44.5q-28 4 -55.5 25t-36.5 54q-83 -102 -168 -164.5t-187 -62.5q-44 0 -55 16t-20 64q2 59 28.5 146.5t38.5 109.5l-8 4q-112 -140 -183 -212t-145 -116q-36 -12 -65 -12q-80 0 -80 64q0 44 13.5 81t41.5 100t38 99l-4 4q-15 -20 -44.5 -55 t-52.5 -53q-1 -2 -7 -4t-8 -4q-20 0 -20 44z" />
<glyph unicode="x" horiz-adv-x="831" d="M-76 248q0 32 29 64q35 46 107 124t144 153t103 107q24 30 74 31q59 1 59 -67q0 -34 -2 -86t-2 -95q30 38 60 70.5t66.5 70.5t84.5 88h109q-36 -38 -101 -106l-130 -136t-101 -106q-4 -58 -8 -115l-8 -114q2 -1 -4 -23q0 -36 32 -40q62 20 120.5 60t112 87t123.5 109 q1 1 3.5 2.5t5.5 1.5q14 0 14 -31q0 -24 -2.5 -33t-6.5 -13.5t-5 -6.5q-17 -21 -135 -108.5t-201 -127.5q-36 -12 -78 -12q-33 0 -44 12t-14 44t-5 40q0 24 2 68t2 68v61l-268 -285h-101l365 377q28 32 28 127q4 32 4 80q0 45 -16 45q-8 0 -37 -29q-57 -64 -120 -131 t-111 -116t-128 -129q-20 6 -20 20z" />
<glyph unicode="y" horiz-adv-x="872" d="M-76 256q0 32 35 68q24 26 101 100q78 74 104 112q16 20 42.5 79t41.5 93h88q-23 -64 -53 -124t-80.5 -158t-79 -162.5t-47.5 -134.5q0 -5 8 -13q22 8 56 32q54 42 168 154t217 225t139 169q4 8 36 8q52 0 52 -16q-34 -76 -96 -208l-120 -264q-60 -132 -96 -208l4 -2 l4 -2q42 35 121 102.5t172 145.5t99 80q8 0 14 -12t6 -31q0 -30 -16 -41q-23 -18 -112.5 -92t-164.5 -139t-141 -127t-82 -90q-32 -58 -90 -182t-66 -146q-6 -16 -26 -36t-50 -20q-48 0 -52 52q2 7 4 20.5t4 19.5q19 90 98.5 212t126.5 172q21 26 32 49t29 71t31 76 q16 33 70.5 152t89.5 192h-5q-40 -38 -132.5 -133t-155 -152.5t-127.5 -99.5q-91 -51 -133 -51q-39 0 -39 37q0 19 14 63q35 88 65 149.5t44 86.5q-1 2 -2.5 4t-1.5 4q-28 -29 -57 -58.5t-58 -58.5q-8 1 -20.5 8t-12.5 25z" />
<glyph unicode="z" horiz-adv-x="721" d="M-129 -520q0 75 40.5 138t116.5 127.5t137 115.5t95 98q47 59 47 189q-1 80 -23 80q-18 0 -53 -19t-51 -21q-9 9 -27.5 13.5t-27.5 10.5t-13 32q6 40 36 52t87 17t77 15q68 34 128 105t60 139q0 76 -68 75q-32 0 -64 -14q-76 -35 -143 -114.5t-137 -166t-139 -120.5 q-12 0 -20.5 10t-8.5 22q0 22 8 29q60 59 157 171t135 152.5t94 75.5t118 35q65 0 108.5 -42.5t43.5 -112.5q0 -32 -4 -48q-17 -68 -62 -116t-101.5 -89t-56.5 -51q0 -1 13 -25.5t14 -50.5q0 -10 2 -33t2 -34q0 -12 -2.5 -35.5t-3.5 -33.5q53 44 161 149t138 123h4 q12 0 12 -35v-13q-16 -40 -44 -67q-24 -22 -79 -71t-98 -89.5t-90 -90.5t-57 -74q-38 -90 -98.5 -198.5t-126 -190t-115.5 -87.5q-9 0 -24 -2t-19 -2q-78 0 -78 72zM-51 -492q0 -16 8 -24q5 -4 17 -4q29 0 76.5 50t94.5 130.5t74 163.5q-41 -34 -107 -98t-114.5 -125 t-48.5 -93z" />
<glyph unicode="{" d="M43 -387q11 80 34.5 151.5t72 200t71.5 214t23 169.5q0 76 -44 76q4 16 13 40l15 40q38 0 96 76q6 10 24 42t38.5 77.5t41.5 109.5q22 69 72 215t76 223q40 82 85 131.5t115 49.5h48l-19 -64h-65q-38 0 -73 -71t-85 -230t-62 -191q-65 -172 -114 -262q-50 -89 -122 -145 q28 -43 28 -113q0 -62 -21 -142t-65 -208t-66 -197t-35 -141q0 -24 -4 -36q9 -52 19 -52h65l-21 -64h-72q-64 0 -69 101z" />
<glyph unicode="|" horiz-adv-x="456" d="M196 0v1420v48h72v-1421v-47h-72z" />
<glyph unicode="}" d="M-96 -488l20 64h64q36 0 68.5 68.5t83 220t69.5 199.5q62 170 111 258q48 88 120 147q-22 31 -28 99q2 86 25 167t71.5 203t72 203t23.5 167q0 56 -20 56h-64l25 64h67q64 0 64 -105q0 -53 -16 -107t-66.5 -198t-78 -238t-40.5 -192q9 -80 53 -80q-3 -17 -12.5 -41.5 t-15.5 -38.5q-48 0 -96 -68q-57 -94 -105 -229q-26 -82 -75.5 -222t-75.5 -216q-32 -74 -81.5 -127.5t-113.5 -53.5h-49z" />
<glyph unicode="~" horiz-adv-x="1229" d="M140 303q16 44 78 110t190 66q54 -2 108 -20.5t128 -54t110 -50t70 -14.5q42 0 70.5 16.5t47 39t70.5 92.5l72 -72q-63 -92 -125.5 -134t-153.5 -42q-50 2 -91.5 17.5t-111.5 50.5t-117 52t-98 17q-112 1 -174 -145z" />
<glyph unicode="&#xa1;" horiz-adv-x="532" d="M-164 -436q0 4 2 11t2 9l352 868q12 32 40 32t28 -32v-4l-328 -880q0 -11 -14 -24t-47 -13q-35 0 -35 33zM236 608q0 36 27 76t69 47h16q33 0 33 -47q0 -45 -29 -71q-28 -25 -80 -45q-32 6 -36 40z" />
<glyph unicode="&#xa2;" horiz-adv-x="907" d="M37 440q4 16 4 35q16 102 72 188t128.5 144.5t140.5 91.5t102 33l108 301q6 27 28 27t23 -21l-103 -303q96 -6 120 -68v-24q0 -52 -48 -160q-24 -46 -57 -51q-5 5 -20 8t-23 19q6 18 37 74q31 58 31 90q0 48 -64 48q-28 -76 -60.5 -172t-49 -145t-44.5 -135t-46 -136 q82 28 159 80.5t147 110t74 57.5q6 0 13.5 -11t7.5 -25q0 -22 -25 -48q-208 -198 -403 -239q-52 -139 -125 -377q-6 -24 -43 -24q-27 0 -33 24q2 2 3 5l1 3q13 24 62.5 162t68.5 198q-98 0 -140 73.5t-46 166.5zM116 461q0 -108 34.5 -148.5t101.5 -40.5q10 28 38.5 110 t48 136t66.5 185t56 157q-156 -72 -245 -183.5t-100 -215.5z" />
<glyph unicode="&#xa3;" horiz-adv-x="907" d="M-168 33q0 39 41.5 57t93.5 18q36 0 69.5 -4t43.5 -4q21 0 92 64q37 40 81.5 124t74.5 160h-164l12 72h180q71 213 102 291q30 77 74 149q114 188 260 189q68 0 108 -43.5t40 -114.5q0 -106 -41 -200.5t-131 -94.5q2 8 28.5 70.5t45 121.5t18.5 103q0 84 -72 84 q-74 0 -134.5 -75t-108.5 -194q-49 -119 -101 -286h199l-15 -72h-212q-38 -96 -69 -161t-77 -127q-46 -60 -106 -92v-4q62 -8 188 -17q100 2 221 21t139 20q36 0 36 -41q-8 -31 -56 -35q-12 -1 -83 -8t-137 -12q-66 -4 -120 -4q-164 0 -256 36q-82 -36 -164 -36 q-94 0 -100 45z" />
<glyph unicode="&#xa4;" horiz-adv-x="907" d="M-8 68l96 108q-96 120 -96 276q0 88 29 166t75 122l-104 104l68 72l104 -101q108 101 284 101q86 0 166 -28q80 -27 126 -73l100 101l72 -72l-101 -109q97 -105 97 -279q0 -86 -25 -162.5t-68 -117.5l97 -108l-68 -68l-100 104q-104 -104 -283 -104q-92 0 -175.5 29 t-129.5 75l-96 -104zM80 461q0 -100 49 -186.5t134 -136.5t185 -50t185.5 50t135.5 136.5t50 186.5q0 98 -49.5 181.5t-133.5 132.5t-184 49t-186 -49t-136 -133t-50 -181z" />
<glyph unicode="&#xa5;" horiz-adv-x="907" d="M51 440q4 16 13.5 32t15.5 16h297l31 92l-21 61h-271q-8 1 -12 11q4 16 12 30t13 14h239l-176 444q0 18 48 19q47 0 56 -4q10 -5 20 -23l180 -468l512 489q4 2 49 2q35 0 35 -2l-480 -457h203q4 0 4 -20q-1 -35 -31 -35h-233l-47 -45l-39 -108h299q4 0 4 -17 q0 -39 -32 -39h-292q-16 -45 -44 -124.5t-56.5 -158.5t-44.5 -125q-5 -24 -43 -24h-16q-29 0 -35 16q34 68 78.5 211t72.5 205h-300q-4 0 -9 8z" />
<glyph unicode="&#xa6;" horiz-adv-x="280" d="M196 0v1420v48h72v-1421v-47h-72z" />
<glyph unicode="&#xa7;" horiz-adv-x="1140" d="M41 96l51 44q14 -16 58 -61t113 -78.5t161 -33.5q96 12 148 58.5t52 114.5q0 75 -56 149q-26 38 -81 91.5t-133 134.5t-119 150.5t-41 139.5q0 29 11 63q46 152 215 152q61 0 92 -8q4 3 8 4h4q-34 20 -50 49t-30 75t-24 64q13 224 213 264q44 8 90 8q118 0 199.5 -52 t123.5 -114q42 -64 42 -86l-56 -28q-24 60 -78.5 110t-118 79.5t-110.5 29.5q-210 -8 -217 -176q3 -53 28.5 -110.5t59.5 -96.5q70 -64 143 -130.5t128 -145t55 -160.5q0 -23 -6 -47q-42 -183 -252 -193q-22 4 -48 4q24 -20 61 -81t40 -111q0 -62 -35.5 -123.5t-99.5 -102 t-142 -42.5q-248 0 -399 196zM272 801q8 -113 132 -242q148 -145 264 -151q70 6 123 49t53 111q0 94 -127 241q-40 50 -85.5 85.5t-91.5 54.5t-92 19q-68 0 -120.5 -50t-55.5 -117z" />
<glyph unicode="&#xa8;" horiz-adv-x="456" d="M60 977q0 29 18 46t47 17q26 0 44.5 -17t18.5 -46q0 -28 -18 -44.5t-45 -16.5q-28 0 -46.5 16.5t-18.5 44.5zM428 977q0 29 18 46t46 17q26 0 44.5 -17t18.5 -46q0 -28 -18.5 -44.5t-44.5 -16.5q-27 0 -45.5 16.5t-18.5 44.5z" />
<glyph unicode="&#xa9;" horiz-adv-x="1640" d="M60 717q0 206 101 380.5t275 276.5t379 102q204 0 381.5 -103t282 -279t104.5 -382t-102 -380.5t-276.5 -276.5t-380.5 -102t-382 103t-279 279t-103 382zM164 721q0 -186 84 -340.5t236 -245.5t348 -94q138 0 257 53.5t207 148t136 218t48 260.5q0 180 -87 330.5 t-238 237.5t-331 87t-332 -87t-240 -237t-88 -331zM377 696q8 60 8 92q8 122 77.5 215.5t163.5 142.5q94 50 170 50q187 0 284.5 -71t124 -142t28.5 -107h-113q-23 112 -101.5 164t-182.5 52q-98 0 -176 -52.5t-122 -140t-46 -187.5q4 -101 49 -187.5t125 -140.5t178 -60 q95 4 171.5 57.5t104.5 167.5h113q-33 -151 -142 -235t-263 -91q-130 4 -231 68t-158.5 171t-61.5 234z" />
<glyph unicode="&#xaa;" horiz-adv-x="499" d="M76 868q6 82 68.5 148t152.5 101.5t172 35.5q34 0 72.5 -7.5t38.5 -29.5v-8q-8 -16 -21 -20q-4 4 -6 4q-20 20 -82 20q-9 0 -59 -8q-47 -9 -112 -42t-114 -81q-50 -49 -55 -97q0 -16 -2 -28q2 -43 11 -66q10 -22 44 -34q21 4 68 32q42 30 106.5 103t106.5 141 q2 3 6.5 8.5t16.5 7.5h24h24q-54 -114 -124 -239l-8 -25q0 -8 16 -16q58 20 160 100q8 8 16 8q12 -6 12 -28q0 -24 -66 -72t-110 -59q-16 -1 -28 -5q-48 0 -56 56q8 24 8 33q5 18 15.5 36.5t15.5 26.5h-2q-103 -136 -213 -156q-32 5 -50.5 19.5t-26 35.5t-12 54.5t-7.5 50.5 z" />
<glyph unicode="&#xab;" horiz-adv-x="1024" d="M125 368l315 284q26 20 92 20h31l-331 -320l212 -309q-20 0 -32 -2q-60 3 -84 31zM428 368l307 284q15 20 133 20l-332 -312l212 -317q-22 0 -40 -2q-60 5 -75 31z" />
<glyph unicode="&#xac;" horiz-adv-x="1229" d="M252 469v67h725v-384h-74v317h-651z" />
<glyph unicode="&#xad;" d="M41 324q14 51 23 62q8 10 36 10h408q-18 -55 -26 -64q-8 -8 -42 -8h-399z" />
<glyph unicode="&#xae;" horiz-adv-x="1640" d="M56 704q0 216 103 393.5t279 278t381 100.5q206 0 381 -103t277 -281t102 -388q0 -207 -97.5 -378t-269.5 -270.5t-384 -102.5q-156 0 -297.5 58.5t-247.5 162.5t-165.5 241t-61.5 289zM160 712q0 -185 83.5 -337.5t236 -241.5t348.5 -92q138 0 257 52t207 144.5 t136 215.5t48 259q0 180 -86 333t-236 242t-330 89q-182 0 -335 -84t-241 -236t-88 -344zM536 260v904h372q121 -6 192.5 -72t71.5 -180q0 -63 -28 -121.5t-80 -94.5t-116 -36l268 -400h-128l-256 400h-191v-400h-105zM641 752h215q211 0 211 164q0 78 -57.5 116.5 t-141.5 38.5h-227v-319z" />
<glyph unicode="&#xb1;" horiz-adv-x="1229" d="M252 0v72h725v-72h-725zM252 391v74h328v260h67v-260h330v-74h-330v-262h-67v262h-328z" />
<glyph unicode="&#xb2;" horiz-adv-x="545" d="M-8 524q3 34 30.5 57t73.5 23q34 -6 140 -45q156 122 258 220.5t134 193.5q8 34 9 51q1 60 -69 60q-44 0 -80 -20t-85 -60t-67 -52q-2 0 -8 -3t-12 -5q-7 0 -17 29q38 72 115.5 126t157.5 54q58 -3 99 -35t41 -86q0 -66 -79 -180q-40 -55 -84 -101t-87.5 -83t-99.5 -79.5 t-69 -52.5q67 -22 147 -28q87 6 152 32v-28q0 -30 -22 -43.5t-54 -17t-64 -7.5q-122 8 -224 56q-86 -52 -156 -52q-36 0 -58 21t-22 55zM37 524q2 0 3 -1.5t1 -2.5q0 -32 39 -32q46 6 100 32v8q-63 24 -104 25q-33 -1 -39 -29z" />
<glyph unicode="&#xb3;" horiz-adv-x="545" d="M37 604q2 17 3.5 29.5t7.5 21.5t20 9q13 0 21.5 -2t10.5 -2q0 -16 -4 -32q8 -70 20 -83q10 -16 25 -20.5t55 -8.5q52 0 112 23t101 69t43 109q0 40 -19 66t-46 26q-9 0 -75 -8q-28 8 -38 12q-9 5 -18 23q8 25 8 20q18 24 60 24q10 0 72 -8q79 37 125.5 88.5t46.5 91.5 q0 24 -25 34t-51 10q-110 -12 -152 -64q-20 -24 -51 -24q-11 0 -25 12q8 22 8 20q24 54 95 86.5t137 32.5q52 0 94 -24q43 -25 43 -83q-3 -56 -64 -119t-129 -89q36 -23 58 -51.5t22 -84.5q-4 -64 -52 -121t-123 -91.5t-157 -34.5q-144 0 -159 143z" />
<glyph unicode="&#xb4;" horiz-adv-x="456" d="M200 860l220 272h129l-277 -272h-72z" />
<glyph unicode="&#xb6;" horiz-adv-x="1229" d="M160 -391l348 1032q-90 0 -200 51q-110 50 -112 211q8 91 23 149q32 110 105 186t161 118t164.5 59t122.5 17h484l-484 -1420l-139 -403h-101l484 1419l108 316h-272l-484 -1420l-108 -315h-100z" />
<glyph unicode="&#xb7;" horiz-adv-x="456" d="M112 332q4 12 4 28q12 33 41 56.5t58 23.5q22 0 35.5 -14t13.5 -39q0 -42 -32 -76.5t-72 -34.5q-42 0 -48 56z" />
<glyph unicode="&#xb8;" horiz-adv-x="456" d="M-289 -332l33 48l58 -29t50 -17t76 -6q52 0 83.5 24t31.5 60q0 88 -123 96q-52 -8 -55 -8q21 45 42 90.5t42 89.5h47l-68 -124q4 0 16 4q190 -20 191 -132q0 -68 -63.5 -106.5t-147.5 -38.5q-71 2 -130 20t-83 29z" />
<glyph unicode="&#xb9;" horiz-adv-x="456" d="M60 461q48 60 95 141.5t95 175.5t106 205q-102 -67 -133 -67q-2 0 -4.5 5l-3.5 7q6 30 30.5 48.5t73.5 44t66 40.5q8 8 25 36.5t34 44.5q18 17 44 17q36 -1 36 -23q-2 -12 -14 -29.5t-29 -36.5t-33 -38q-3 -4 -64.5 -133t-126.5 -250t-117 -188h-80z" />
<glyph unicode="&#xba;" horiz-adv-x="407" d="M80 860q8 49 8 72q14 82 102 156t158 88h12q22 0 27 -8v-13q0 -27 -43 -27q-86 -18 -128 -82t-81 -174q0 -37 16.5 -73.5t61.5 -38.5q56 14 106.5 59t81.5 107t31 122v19q-4 9 -7 15q-3 8 -5 10q6 20 20 20q17 0 26 -24t9 -48q0 -67 -40.5 -141.5t-109.5 -126t-145 -51.5 l-8 -4q-88 0 -92 143z" />
<glyph unicode="&#xbb;" horiz-adv-x="1024" d="M84 47l332 317l-211 312h35q60 0 80 -29l204 -295l-309 -280q-15 -24 -131 -25zM387 47l334 321l-213 308h28q64 0 88 -29l204 -291l-316 -288q-20 -16 -96 -25q-12 4 -29 4z" />
<glyph unicode="&#xbc;" horiz-adv-x="1364" d="M60 461q48 60 95 141.5t95 175.5t106 205q-102 -67 -133 -67q-2 0 -4.5 5l-3.5 7q6 30 30.5 48.5t73.5 44t66 40.5q8 8 25 36.5t34 44.5q18 17 44 17q36 -1 36 -23q-2 -12 -14 -29.5t-29 -36.5t-33 -38q-3 -4 -64.5 -133t-126.5 -250t-117 -188h-80zM108 -8l957 1167h71 l-960 -1167h-68zM700 200q4 46 96 84q12 4 51 61t73 124q30 56 56 114.5t44 96.5q4 8 7 17.5t7 14.5t10 9h17q31 -1 31 -17q0 -12 -25 -63q-42 -85 -106.5 -200t-100.5 -157q18 -8 168 -20q16 4 33 4q159 296 186 340q1 4 17 4q14 0 26 -3t18 -5q-64 -108 -192 -340 q14 -4 43 -5t37 -3h28q22 0 23 -12q0 -24 -43 -35q-8 4 -16 4q-38 2 -96 2q-6 -10 -41 -86.5t-47 -100.5q-18 -36 -44 -36q-23 0 -28 16q8 16 8 20q20 48 56 119t36 72q-7 4 -78.5 12.5t-109.5 8.5q-24 0 -66.5 -31.5t-52.5 -36.5q-25 6 -25 28z" />
<glyph unicode="&#xbd;" horiz-adv-x="1364" d="M47 456q38 50 77.5 115.5t72.5 126t68.5 130.5t78.5 155q-90 -63 -129 -71q-8 12 -10 16q4 30 29 48.5t73.5 44t64.5 40.5q7 6 25.5 35.5t35 45t42.5 17.5q11 0 24 -6.5t13 -16.5q-2 -14 -14.5 -32t-29 -36t-32.5 -36q-20 -42 -73.5 -155t-118 -234t-115.5 -187h-82z M108 -8l957 1167h71l-960 -1167h-68zM612 84q3 32 31 56t74 24q24 -4 46 -11t47.5 -16t45.5 -16q160 123 260 219t131 192q9 38 9 52q0 29 -22 43t-50 14q-44 0 -76 -18.5t-78 -56.5t-74 -54l-16 -8q-24 6 -24 24q8 16 8 17q130 163 268 163q54 0 96.5 -32.5t42.5 -83.5 q1 -72 -79 -184q-67 -93 -146 -160q-78 -66 -194 -152q93 -28 149 -28q65 0 151 32v-28q0 -30 -22.5 -44t-71 -19t-51.5 -5q-121 8 -223 52q-84 -48 -152 -48q-36 0 -58 20t-22 56zM656 76q6 -29 44 -29q23 0 54.5 11t46.5 22v4q-89 28 -105 28q-40 -4 -40 -36z" />
<glyph unicode="&#xbe;" horiz-adv-x="1364" d="M16 604q1 3 4.5 23t9.5 28.5t21 8.5q10 0 18 -2t11 -2q0 -16 -4 -32q8 -70 20 -83q10 -16 25 -20.5t55 -8.5q52 0 111.5 23t101 69t43.5 109v4q0 40 -22 64q-24 24 -42 24t-71 -8q-30 8 -39 12q-10 5 -22 23q8 25 8 20q18 24 63 24q4 0 70 -8q78 37 125 88.5t47 91.5 q0 24 -25.5 34t-52.5 10q-109 -12 -151 -64q-20 -24 -52 -24q-10 0 -24 12q8 22 8 20q26 54 96 86.5t136 32.5q54 0 95 -24q41 -25 41 -83q-3 -56 -63.5 -119t-128.5 -89q36 -22 58 -50q22 -30 22 -86q-4 -64 -52 -121t-123.5 -91.5t-156.5 -34.5q-142 0 -160 143zM209 -8 l959 1167h69l-957 -1167h-71zM748 200q2 26 34 49t62 31q14 8 52 64t72 125q28 54 57 116.5t42 90.5q14 45 45 45q28 -1 28 -17q0 -8 -24 -67q-156 -295 -208 -357q4 0 65 -9t94 -11q14 2 26.5 5t14.5 3q8 12 92 168t96 172q2 1 7 2.5t10 1.5q14 0 28.5 -4.5t14.5 -7.5 q-21 -36 -62.5 -109t-72.5 -128t-57 -99q14 -4 42 -5t37 -3h25q28 0 28 -16q0 -30 -59 -31q-63 6 -97 6q-7 -11 -42 -89q-36 -80 -46 -98q-18 -36 -44 -36q-24 0 -27 16q1 6 3 12q3 6 3 8q18 42 55.5 115.5t37.5 75.5q-6 3 -74 10t-109 7q-21 0 -40.5 -10t-46.5 -29t-38 -25 q-24 6 -24 28z" />
<glyph unicode="&#xbf;" horiz-adv-x="643" d="M-148 -284q0 82 60 180q37 59 83 105.5t137.5 133.5t136.5 142t59 110q24 78 59 78q25 0 25 -45q0 -15 -8 -43q-30 -71 -85 -136.5t-148 -159t-146 -158t-81 -136.5q-12 -39 -12 -71q0 -102 92 -120q58 0 107 26.5t82 62t39 55.5q11 50 55 60q10 0 19.5 -11t9.5 -29 q0 -60 -51 -113t-123 -84.5t-129 -31.5q-76 0 -128.5 54t-52.5 131zM368 616q18 54 40.5 84.5t66.5 30.5q45 0 45 -47q0 -40 -34 -78q-32 -38 -74 -38q-36 0 -44 48z" />
<glyph unicode="&#xc0;" horiz-adv-x="1140" d="M-135 -8q25 72 93 222t142 261q-75 0 -176 -14q-18 3 -21 9t-3 26q2 31 22 40.5t70 16.5h64h88q86 150 248 354t338 355q176 152 306 162q148 0 148 -124q0 -68 -76 -292q-10 -28 -70 -204t-92 -290t-53 -237.5t-21 -243.5q0 -49 -57 -49q-50 0 -55 49q0 6 2 57.5t2 61.5 q-21 80 -71.5 146.5t-169.5 117t-323 59.5q-72 -94 -220 -434q-12 -36 -25.5 -42.5t-89.5 -6.5zM244 549q110 -13 156.5 -19.5t120 -30t146.5 -73.5t129 -129q20 95 57 224t77 252t83.5 254t51.5 161q3 18 8 37t8 37q3 16 3 30q0 48 -40 48q-56 0 -172 -80 q-122 -84 -257 -222t-238 -275t-133 -214zM852 1752h128l220 -272h-72z" />
<glyph unicode="&#xc1;" horiz-adv-x="1140" d="M-135 -8q25 72 93 222t142 261q-75 0 -176 -14q-18 3 -21 9t-3 26q2 31 22 40.5t70 16.5h64h88q86 150 248 354t338 355q176 152 306 162q148 0 148 -124q0 -68 -76 -292q-10 -28 -70 -204t-92 -290t-53 -237.5t-21 -243.5q0 -49 -57 -49q-50 0 -55 49q0 6 2 57.5t2 61.5 q-21 80 -71.5 146.5t-169.5 117t-323 59.5q-72 -94 -220 -434q-12 -36 -25.5 -42.5t-89.5 -6.5zM244 549q110 -13 156.5 -19.5t120 -30t146.5 -73.5t129 -129q20 95 57 224t77 252t83.5 254t51.5 161q3 18 8 37t8 37q3 16 3 30q0 48 -40 48q-56 0 -172 -80 q-122 -84 -257 -222t-238 -275t-133 -214zM984 1476l220 272h129l-277 -272h-72z" />
<glyph unicode="&#xc2;" horiz-adv-x="1140" d="M-135 -8q25 72 93 222t142 261q-75 0 -176 -14q-18 3 -21 9t-3 26q2 31 22 40.5t70 16.5h64h88q86 150 248 354t338 355q176 152 306 162q148 0 148 -124q0 -68 -76 -292q-10 -28 -70 -204t-92 -290t-53 -237.5t-21 -243.5q0 -49 -57 -49q-50 0 -55 49q0 6 2 57.5t2 61.5 q-21 80 -71.5 146.5t-169.5 117t-323 59.5q-72 -94 -220 -434q-12 -36 -25.5 -42.5t-89.5 -6.5zM244 549q110 -13 156.5 -19.5t120 -30t146.5 -73.5t129 -129q20 95 57 224t77 252t83.5 254t51.5 161q3 18 8 37t8 37q3 16 3 30q0 48 -40 48q-56 0 -172 -80 q-122 -84 -257 -222t-238 -275t-133 -214zM780 1476l268 272h109l182 -272h-63l-176 207l-264 -207h-56z" />
<glyph unicode="&#xc3;" horiz-adv-x="1140" d="M-135 -8q25 72 93 222t142 261q-75 0 -176 -14q-18 3 -21 9t-3 26q2 31 22 40.5t70 16.5h64h88q86 150 248 354t338 355q176 152 306 162q148 0 148 -124q0 -68 -76 -292q-10 -28 -70 -204t-92 -290t-53 -237.5t-21 -243.5q0 -49 -57 -49q-50 0 -55 49q0 6 2 57.5t2 61.5 q-21 80 -71.5 146.5t-169.5 117t-323 59.5q-72 -94 -220 -434q-12 -36 -25.5 -42.5t-89.5 -6.5zM244 549q110 -13 156.5 -19.5t120 -30t146.5 -73.5t129 -129q20 95 57 224t77 252t83.5 254t51.5 161q3 18 8 37t8 37q3 16 3 30q0 48 -40 48q-56 0 -172 -80 q-122 -84 -257 -222t-238 -275t-133 -214zM825 1521q6 39 38.5 97t108.5 58q31 0 72.5 -14t82.5 -28t73 -14q30 0 49.5 8t30 20t17.5 28q7 18 11 28h48q-4 -51 -20 -81.5t-36 -45t-45.5 -21t-38.5 -8.5q-40 0 -75 10t-88 28.5t-73 18.5q-84 0 -100 -84h-55z" />
<glyph unicode="&#xc4;" horiz-adv-x="1140" d="M-135 -8q25 72 93 222t142 261q-75 0 -176 -14q-18 3 -21 9t-3 26q2 31 22 40.5t70 16.5h64h88q86 150 248 354t338 355q176 152 306 162q148 0 148 -124q0 -68 -76 -292q-10 -28 -70 -204t-92 -290t-53 -237.5t-21 -243.5q0 -49 -57 -49q-50 0 -55 49q0 6 2 57.5t2 61.5 q-21 80 -71.5 146.5t-169.5 117t-323 59.5q-72 -94 -220 -434q-12 -36 -25.5 -42.5t-89.5 -6.5zM244 549q110 -13 156.5 -19.5t120 -30t146.5 -73.5t129 -129q20 95 57 224t77 252t83.5 254t51.5 161q3 18 8 37t8 37q3 16 3 30q0 48 -40 48q-56 0 -172 -80 q-122 -84 -257 -222t-238 -275t-133 -214zM840 1597q0 29 18 46t47 17q26 0 44.5 -17t18.5 -46q0 -28 -18 -44.5t-45 -16.5q-28 0 -46.5 16.5t-18.5 44.5zM1208 1597q0 29 18 46t46 17q26 0 44.5 -17t18.5 -46q0 -28 -18.5 -44.5t-44.5 -16.5q-27 0 -45.5 16.5t-18.5 44.5z " />
<glyph unicode="&#xc5;" horiz-adv-x="1140" d="M-135 -8q25 72 93 222t142 261q-75 0 -176 -14q-18 3 -21 9t-3 26q2 31 22 40.5t70 16.5h64h88q86 150 248 354t338 355q176 152 306 162q148 0 148 -124q0 -68 -76 -292q-10 -28 -70 -204t-92 -290t-53 -237.5t-21 -243.5q0 -49 -57 -49q-50 0 -55 49q0 6 2 57.5t2 61.5 q-21 80 -71.5 146.5t-169.5 117t-323 59.5q-72 -94 -220 -434q-12 -36 -25.5 -42.5t-89.5 -6.5zM244 549q110 -13 156.5 -19.5t120 -30t146.5 -73.5t129 -129q20 95 57 224t77 252t83.5 254t51.5 161q3 18 8 37t8 37q3 16 3 30q0 48 -40 48q-56 0 -172 -80 q-122 -84 -257 -222t-238 -275t-133 -214zM892 1644q0 81 59 138.5t140 57.5q84 0 142.5 -57t58.5 -139q0 -56 -26.5 -102t-72 -72t-102.5 -26q-81 0 -140 58t-59 142zM956 1644q0 -56 39 -93.5t96 -37.5q58 0 97.5 37.5t39.5 93.5q0 54 -39 92.5t-98 38.5 q-56 0 -95.5 -38.5t-39.5 -92.5z" />
<glyph unicode="&#xc6;" horiz-adv-x="1745" d="M-108 28q2 27 54.5 139t101 207t73.5 142l-86 -8l-86 -8q-21 0 -21 28q0 24 14 44t34 20q33 2 53 3t44.5 3t49 3t49.5 3q72 126 167 247.5t199 227t204 185.5t182 124q80 44 151 44q133 0 149 -140q39 30 122.5 79t161.5 57q98 0 163 -37t65 -103q0 -12 -8 -45 q-28 -70 -70.5 -129t-111 -138t-98.5 -120q-4 -6 -20 -16q-12 0 -26 20t-18 39q2 8 3 11.5t1 5.5q11 26 97 126t125 150q38 50 42 84q0 68 -108 68q-124 0 -241 -76.5t-192 -197.5q-75 -120 -79 -242q7 -90 43 -144q41 -52 41 -88q0 -16 -8 -28t-25 -27t-18 -17 q-36 -24 -98.5 -66.5t-113 -104t-52.5 -134.5q9 -57 27 -90q26 -46 116 -53q46 4 152 24q64 15 155 70t162.5 124.5t85.5 125.5q6 3 21.5 7.5t35.5 4.5q24 0 44 -12q-13 -46 -70.5 -114.5t-141.5 -135t-186 -114.5t-206 -60q-41 -4 -60 -4q-116 0 -170 56t-58 140 q0 104 50 171t82 89q-62 4 -220 29.5t-235.5 36t-161.5 10.5q-22 -40 -68.5 -128t-101.5 -202t-73 -178q0 -16 -48 -16q-40 0 -40 28zM280 604q33 0 98 -10t152.5 -26t154.5 -26t120 -14q64 0 143.5 18t79.5 66q0 24 -12 40q-58 96 -64 208q6 168 105 280q75 88 75 156 q0 48 -61 48h-35q-90 -22 -240 -142t-295 -286.5t-221 -311.5z" />
<glyph unicode="&#xc7;" horiz-adv-x="1100" d="M24 385q3 118 43 245.5t109 237.5q90 142 206.5 268t255.5 207q140 81 282 81q110 0 166.5 -60t56.5 -170q-1 -26 -3 -41q-4 -72 -56.5 -161t-120 -163t-111.5 -104q-68 -47 -160 -95t-137 -50q-17 0 -23 20q4 8 4 16q10 38 26 51.5t62 28t80 29.5q84 36 167.5 109.5 t136.5 164.5t53 181q0 72 -33.5 122t-111.5 50q-81 0 -181 -48q-138 -65 -251.5 -181t-191.5 -239.5t-116 -215.5q-54 -118 -60 -281q4 -124 58 -208.5t174 -102.5q22 -4 66 -4q117 0 206 55t138.5 118t97.5 142q18 -1 60 -27q-30 -100 -112 -185t-194 -134t-225 -49 q-53 0 -78 4l-55 -104q4 0 12 4q197 -20 197 -136q0 -66 -64.5 -103.5t-148.5 -37.5q-70 2 -129 20t-82 29l31 48l58 -29t50 -17t76 -6q56 0 86 22t30 62q0 88 -128 96q-44 -8 -52 -8l40 84l40 84q-6 3 -21.5 9.5t-23.5 10.5q-97 43 -146.5 138.5t-52.5 222.5z" />
<glyph unicode="&#xc8;" horiz-adv-x="983" d="M-60 184q0 98 44 167.5t113 122t116 87.5t47 63q0 18 -4 23q-64 109 -72 221q2 62 23.5 118t51 101t81.5 113q36 50 109 103.5t163 89t172 35.5q80 0 130 -39t50 -105q0 -54 -40 -112q-42 -58 -77 -103t-96 -121t-71 -92q-6 -6 -24 -12q-12 0 -24 14t-16 35q2 9 12 35 q18 28 93 114t118 147t43 101q0 13 -6 23q-26 31 -108 31q-118 0 -228 -74t-182 -189t-86 -229q3 -49 17.5 -96.5t54.5 -151.5q0 -30 -25 -51t-114 -88t-132 -121t-45 -121q4 -9 5 -23q13 -126 163 -132q91 2 202.5 51.5t206.5 130.5t139 170q16 8 44 8q30 0 44 -4 q-42 -113 -158 -211.5t-248.5 -158.5t-216.5 -62q-141 0 -205 64t-64 128zM547 1748h128l220 -272h-72z" />
<glyph unicode="&#xc9;" horiz-adv-x="983" d="M-60 184q0 98 44 167.5t113 122t116 87.5t47 63q0 18 -4 23q-64 109 -72 221q2 62 23.5 118t51 101t81.5 113q36 50 109 103.5t163 89t172 35.5q80 0 130 -39t50 -105q0 -54 -40 -112q-42 -58 -77 -103t-96 -121t-71 -92q-6 -6 -24 -12q-12 0 -24 14t-16 35q2 9 12 35 q18 28 93 114t118 147t43 101q0 13 -6 23q-26 31 -108 31q-118 0 -228 -74t-182 -189t-86 -229q3 -49 17.5 -96.5t54.5 -151.5q0 -30 -25 -51t-114 -88t-132 -121t-45 -121q4 -9 5 -23q13 -126 163 -132q91 2 202.5 51.5t206.5 130.5t139 170q16 8 44 8q30 0 44 -4 q-42 -113 -158 -211.5t-248.5 -158.5t-216.5 -62q-141 0 -205 64t-64 128zM679 1480l220 272h129l-277 -272h-72z" />
<glyph unicode="&#xca;" horiz-adv-x="983" d="M-60 184q0 98 44 167.5t113 122t116 87.5t47 63q0 18 -4 23q-64 109 -72 221q2 62 23.5 118t51 101t81.5 113q36 50 109 103.5t163 89t172 35.5q80 0 130 -39t50 -105q0 -54 -40 -112q-42 -58 -77 -103t-96 -121t-71 -92q-6 -6 -24 -12q-12 0 -24 14t-16 35q2 9 12 35 q18 28 93 114t118 147t43 101q0 13 -6 23q-26 31 -108 31q-118 0 -228 -74t-182 -189t-86 -229q3 -49 17.5 -96.5t54.5 -151.5q0 -30 -25 -51t-114 -88t-132 -121t-45 -121q4 -9 5 -23q13 -126 163 -132q91 2 202.5 51.5t206.5 130.5t139 170q16 8 44 8q30 0 44 -4 q-42 -113 -158 -211.5t-248.5 -158.5t-216.5 -62q-141 0 -205 64t-64 128zM475 1480l268 272h109l182 -272h-63l-176 207l-264 -207h-56z" />
<glyph unicode="&#xcb;" horiz-adv-x="983" d="M-60 184q0 98 44 167.5t113 122t116 87.5t47 63q0 18 -4 23q-64 109 -72 221q2 62 23.5 118t51 101t81.5 113q36 50 109 103.5t163 89t172 35.5q80 0 130 -39t50 -105q0 -54 -40 -112q-42 -58 -77 -103t-96 -121t-71 -92q-6 -6 -24 -12q-12 0 -24 14t-16 35q2 9 12 35 q18 28 93 114t118 147t43 101q0 13 -6 23q-26 31 -108 31q-118 0 -228 -74t-182 -189t-86 -229q3 -49 17.5 -96.5t54.5 -151.5q0 -30 -25 -51t-114 -88t-132 -121t-45 -121q4 -9 5 -23q13 -126 163 -132q91 2 202.5 51.5t206.5 130.5t139 170q16 8 44 8q30 0 44 -4 q-42 -113 -158 -211.5t-248.5 -158.5t-216.5 -62q-141 0 -205 64t-64 128zM531 1597q0 29 18 46t47 17q26 0 44.5 -17t18.5 -46q0 -28 -18 -44.5t-45 -16.5q-28 0 -46.5 16.5t-18.5 44.5zM899 1597q0 29 18 46t46 17q26 0 44.5 -17t18.5 -46q0 -28 -18.5 -44.5t-44.5 -16.5 q-27 0 -45.5 16.5t-18.5 44.5z" />
<glyph unicode="&#xcc;" d="M-148 24q16 56 52 80q34 -22 84 -28q115 2 223.5 148t220.5 339q71 127 134 311q64 184 98 373q4 25 4 61q0 56 -40 56q-30 0 -72 -33t-68 -67q-44 -53 -96.5 -148.5t-89 -190.5t-38.5 -145q0 -33 -30 -61t-62 -31q-8 16 -8 50q0 74 45 195t117 241t155 199t156 79 q111 0 111 -160q0 -136 -61.5 -319t-127.5 -340q-62 -150 -138.5 -270.5t-157.5 -203t-159.5 -125t-144.5 -42.5q-65 0 -107 32zM432 1748h128l220 -272h-72z" />
<glyph unicode="&#xcd;" d="M-148 24q16 56 52 80q34 -22 84 -28q115 2 223.5 148t220.5 339q71 127 134 311q64 184 98 373q4 25 4 61q0 56 -40 56q-30 0 -72 -33t-68 -67q-44 -53 -96.5 -148.5t-89 -190.5t-38.5 -145q0 -33 -30 -61t-62 -31q-8 16 -8 50q0 74 45 195t117 241t155 199t156 79 q111 0 111 -160q0 -136 -61.5 -319t-127.5 -340q-62 -150 -138.5 -270.5t-157.5 -203t-159.5 -125t-144.5 -42.5q-65 0 -107 32zM564 1476l220 272h129l-277 -272h-72z" />
<glyph unicode="&#xce;" d="M-148 24q16 56 52 80q34 -22 84 -28q115 2 223.5 148t220.5 339q71 127 134 311q64 184 98 373q4 25 4 61q0 56 -40 56q-30 0 -72 -33t-68 -67q-44 -53 -96.5 -148.5t-89 -190.5t-38.5 -145q0 -33 -30 -61t-62 -31q-8 16 -8 50q0 74 45 195t117 241t155 199t156 79 q111 0 111 -160q0 -136 -61.5 -319t-127.5 -340q-62 -150 -138.5 -270.5t-157.5 -203t-159.5 -125t-144.5 -42.5q-65 0 -107 32zM360 1476l268 272h109l182 -272h-63l-176 207l-264 -207h-56z" />
<glyph unicode="&#xcf;" d="M-148 24q16 56 52 80q34 -22 84 -28q115 2 223.5 148t220.5 339q71 127 134 311q64 184 98 373q4 25 4 61q0 56 -40 56q-30 0 -72 -33t-68 -67q-44 -53 -96.5 -148.5t-89 -190.5t-38.5 -145q0 -33 -30 -61t-62 -31q-8 16 -8 50q0 74 45 195t117 241t155 199t156 79 q111 0 111 -160q0 -136 -61.5 -319t-127.5 -340q-62 -150 -138.5 -270.5t-157.5 -203t-159.5 -125t-144.5 -42.5q-65 0 -107 32zM416 1597q0 29 18 46t47 17q26 0 44.5 -17t18.5 -46q0 -28 -18 -44.5t-45 -16.5q-28 0 -46.5 16.5t-18.5 44.5zM784 1597q0 29 18 46t46 17 q26 0 44.5 -17t18.5 -46q0 -28 -18.5 -44.5t-44.5 -16.5q-27 0 -45.5 16.5t-18.5 44.5z" />
<glyph unicode="&#xd0;" horiz-adv-x="1480" d="M-43 43q-1 73 151 73q42 0 109 -14t131 -14q140 0 316 352h-208q-26 0 -32 29q8 51 64 51h216q60 134 199 476q-50 58 -168.5 161.5t-259.5 163.5q-69 27 -119 27q-78 0 -84 -88q21 -121 130 -214q110 -94 258 -162q-8 -58 -36 -65q0 3 -1 4t-3 1q-108 58 -196 120.5 t-154 147.5q-66 86 -74 184q2 69 47 108.5t97 43.5q156 0 337 -132.5t271 -220.5q16 28 41 65t39 56q14 -12 28 -25l28 -26q-18 -25 -47 -69q-29 -42 -37 -64q91 -98 159.5 -194t113 -205t44.5 -222q0 -134 -71 -221.5t-171 -128.5q-120 -53 -350 -53q-102 0 -196 9 q-93 9 -133 15q-9 0 -59 -6t-99.5 -10t-93.5 -4q-16 0 -48 2t-49 2q-90 5 -90 47zM512 76q7 0 64.5 -5t111.5 -7q456 10 516 233q12 45 12 103q0 89 -30 176.5t-73 157t-82 118.5t-71 84q-17 -51 -59 -166q-43 -114 -105 -250h172q60 0 60 -28q0 -20 -16 -36t-39 -16h-213 q-150 -300 -248 -364z" />
<glyph unicode="&#xd1;" horiz-adv-x="1065" d="M-232 -43q92 101 185 271t169.5 344t175.5 415t138 321q44 102 96 103q72 0 72 -123q2 -146 4 -323.5t5 -360t7 -391.5h4q46 124 128.5 364.5t136 379.5t107.5 231q10 16 20 16q28 0 28 -68q0 -40 -12 -79q-76 -176 -125 -304.5t-104 -281.5t-84 -230.5t-67 -160.5 q-16 -39 -41 -61.5t-48 -22.5q-35 0 -35 68q-2 104 -6 464.5t-5 507t-1 232.5h-4q-55 -126 -146.5 -347.5t-158 -375t-141 -299.5t-154.5 -262q-26 -40 -76 -40q-20 0 -43 6.5t-25 6.5zM657 1521q6 39 38.5 97t108.5 58q31 0 72.5 -14t82.5 -28t73 -14q30 0 49.5 8t30 20 t17.5 28q7 18 11 28h48q-4 -51 -20 -81.5t-36 -45t-45.5 -21t-38.5 -8.5q-40 0 -75 10t-88 28.5t-73 18.5q-84 0 -100 -84h-55z" />
<glyph unicode="&#xd2;" horiz-adv-x="1100" d="M-8 348q17 204 100.5 395t211.5 343t276 244t288 102q56 0 56 -36q0 -19 -10 -22.5t-50 -13.5q-153 -28 -296.5 -136t-256.5 -265t-177 -326t-64 -309q0 -50 10 -101q32 -151 192 -159q138 6 287 108q116 89 224.5 248.5t174.5 330.5t66 289q0 137 -88 156q-21 4 -33 4 q-53 0 -111.5 -35t-112 -107t-91.5 -178q-8 -43 -36 -58.5t-77 -25.5q4 110 78 222t179.5 183t195.5 71q180 -6 180 -232q0 -100 -37.5 -228t-97 -246t-121.5 -198q-106 -134 -193 -213.5t-181 -120t-210 -42.5q-108 0 -169 47t-84 125t-23 184zM668 1748h128l220 -272h-72z " />
<glyph unicode="&#xd3;" horiz-adv-x="1100" d="M-8 348q17 204 100.5 395t211.5 343t276 244t288 102q56 0 56 -36q0 -19 -10 -22.5t-50 -13.5q-153 -28 -296.5 -136t-256.5 -265t-177 -326t-64 -309q0 -50 10 -101q32 -151 192 -159q138 6 287 108q116 89 224.5 248.5t174.5 330.5t66 289q0 137 -88 156q-21 4 -33 4 q-53 0 -111.5 -35t-112 -107t-91.5 -178q-8 -43 -36 -58.5t-77 -25.5q4 110 78 222t179.5 183t195.5 71q180 -6 180 -232q0 -100 -37.5 -228t-97 -246t-121.5 -198q-106 -134 -193 -213.5t-181 -120t-210 -42.5q-108 0 -169 47t-84 125t-23 184zM804 1476l220 272h129 l-277 -272h-72z" />
<glyph unicode="&#xd4;" horiz-adv-x="1100" d="M-8 348q17 204 100.5 395t211.5 343t276 244t288 102q56 0 56 -36q0 -19 -10 -22.5t-50 -13.5q-153 -28 -296.5 -136t-256.5 -265t-177 -326t-64 -309q0 -50 10 -101q32 -151 192 -159q138 6 287 108q116 89 224.5 248.5t174.5 330.5t66 289q0 137 -88 156q-21 4 -33 4 q-53 0 -111.5 -35t-112 -107t-91.5 -178q-8 -43 -36 -58.5t-77 -25.5q4 110 78 222t179.5 183t195.5 71q180 -6 180 -232q0 -100 -37.5 -228t-97 -246t-121.5 -198q-106 -134 -193 -213.5t-181 -120t-210 -42.5q-108 0 -169 47t-84 125t-23 184zM596 1476l268 272h109 l182 -272h-63l-176 207l-264 -207h-56z" />
<glyph unicode="&#xd5;" horiz-adv-x="1100" d="M-8 348q17 204 100.5 395t211.5 343t276 244t288 102q56 0 56 -36q0 -19 -10 -22.5t-50 -13.5q-153 -28 -296.5 -136t-256.5 -265t-177 -326t-64 -309q0 -50 10 -101q32 -151 192 -159q138 6 287 108q116 89 224.5 248.5t174.5 330.5t66 289q0 137 -88 156q-21 4 -33 4 q-53 0 -111.5 -35t-112 -107t-91.5 -178q-8 -43 -36 -58.5t-77 -25.5q4 110 78 222t179.5 183t195.5 71q180 -6 180 -232q0 -100 -37.5 -228t-97 -246t-121.5 -198q-106 -134 -193 -213.5t-181 -120t-210 -42.5q-108 0 -169 47t-84 125t-23 184zM641 1517q6 39 38.5 97 t108.5 58q31 0 72.5 -14t82.5 -28t73 -14q30 0 49.5 8t30 20t17.5 28q7 18 11 28h48q-4 -51 -20 -81.5t-36 -45t-45.5 -21t-38.5 -8.5q-40 0 -75 10t-88 28.5t-73 18.5q-84 0 -100 -84h-55z" />
<glyph unicode="&#xd6;" horiz-adv-x="1100" d="M-8 348q17 204 100.5 395t211.5 343t276 244t288 102q56 0 56 -36q0 -19 -10 -22.5t-50 -13.5q-153 -28 -296.5 -136t-256.5 -265t-177 -326t-64 -309q0 -50 10 -101q32 -151 192 -159q138 6 287 108q116 89 224.5 248.5t174.5 330.5t66 289q0 137 -88 156q-21 4 -33 4 q-53 0 -111.5 -35t-112 -107t-91.5 -178q-8 -43 -36 -58.5t-77 -25.5q4 110 78 222t179.5 183t195.5 71q180 -6 180 -232q0 -100 -37.5 -228t-97 -246t-121.5 -198q-106 -134 -193 -213.5t-181 -120t-210 -42.5q-108 0 -169 47t-84 125t-23 184zM652 1597q0 29 18 46t47 17 q26 0 44.5 -17t18.5 -46q0 -28 -18 -44.5t-45 -16.5q-28 0 -46.5 16.5t-18.5 44.5zM1020 1597q0 29 18 46t46 17q26 0 44.5 -17t18.5 -46q0 -28 -18.5 -44.5t-44.5 -16.5q-27 0 -45.5 16.5t-18.5 44.5z" />
<glyph unicode="&#xd8;" horiz-adv-x="1100" d="M-4 299q0 188 68 382t193 359t293 271.5t358 124.5l75 156q16 32 37 32h28l-80 -184q76 0 76 -39q-2 -15 -17 -19.5t-49 -7.5q-32 -2 -50 -6l-48 -108q104 0 166 -56t62 -164q0 -279 -219 -612q-87 -135 -172.5 -228t-205 -150.5t-279.5 -57.5l-101 -197q-17 -27 -27 -27 h-67l123 236q-144 86 -160 201q-4 30 -4 94zM72 299q12 -82 38 -132.5t90 -78.5l572 1067q-162 -73 -264 -243q-18 -30 -52 -36q-16 8 -24 13q-2 0 -12 14q4 23 24 53q46 63 85 108.5t97.5 91.5t137.5 83q6 2 18 5.5t20 7.5t13 16l37 84q-99 -22 -178.5 -58.5t-164.5 -110 t-181 -196.5q-80 -104 -138 -233t-87 -250.5t-31 -204.5zM268 72q110 8 187 39t141 90q66 59 148 163q119 149 199.5 324.5t80.5 335.5q0 164 -135 164h-37z" />
<glyph unicode="&#xd9;" horiz-adv-x="1251" d="M51 692q0 94 70 236q119 260 287 408q92 84 176 84q68 0 109.5 -41t41.5 -119q-4 -80 -61.5 -215.5t-175.5 -375t-176 -368.5t-74 -221q206 124 553 504q64 70 153 161t157.5 165.5t114.5 136t62 108.5q6 18 29 31.5t43 13.5q24 0 24 -24q0 -14 -8 -27 q-8 -18 -108 -210.5t-165 -334.5t-114.5 -299t-52.5 -285q0 -20 -12 -26.5t-32 -8.5q-20 -1 -56 -5q0 102 31.5 223t85.5 255q55 134 135 314l-4 4q-54 -60 -135 -149t-186.5 -200t-216 -214t-194.5 -162q-98 -67 -152 -67q-58 0 -65 59q7 43 25 101q40 113 94 230.5 t146 301.5q90 184 142 296q52 114 78 204q20 60 21 96q0 28 -16.5 46t-44.5 18q-66 0 -144 -80q-98 -99 -180 -255q-82 -155 -96 -257q0 -22 -30 -45t-58 -27q-20 8 -21 20zM864 1748h128l220 -272h-72z" />
<glyph unicode="&#xda;" horiz-adv-x="1251" d="M51 692q0 94 70 236q119 260 287 408q92 84 176 84q68 0 109.5 -41t41.5 -119q-4 -80 -61.5 -215.5t-175.5 -375t-176 -368.5t-74 -221q206 124 553 504q64 70 153 161t157.5 165.5t114.5 136t62 108.5q6 18 29 31.5t43 13.5q24 0 24 -24q0 -14 -8 -27 q-8 -18 -108 -210.5t-165 -334.5t-114.5 -299t-52.5 -285q0 -20 -12 -26.5t-32 -8.5q-20 -1 -56 -5q0 102 31.5 223t85.5 255q55 134 135 314l-4 4q-54 -60 -135 -149t-186.5 -200t-216 -214t-194.5 -162q-98 -67 -152 -67q-58 0 -65 59q7 43 25 101q40 113 94 230.5 t146 301.5q90 184 142 296q52 114 78 204q20 60 21 96q0 28 -16.5 46t-44.5 18q-66 0 -144 -80q-98 -99 -180 -255q-82 -155 -96 -257q0 -22 -30 -45t-58 -27q-20 8 -21 20zM992 1476l220 272h129l-277 -272h-72z" />
<glyph unicode="&#xdb;" horiz-adv-x="1251" d="M51 692q0 94 70 236q119 260 287 408q92 84 176 84q68 0 109.5 -41t41.5 -119q-4 -80 -61.5 -215.5t-175.5 -375t-176 -368.5t-74 -221q206 124 553 504q64 70 153 161t157.5 165.5t114.5 136t62 108.5q6 18 29 31.5t43 13.5q24 0 24 -24q0 -14 -8 -27 q-8 -18 -108 -210.5t-165 -334.5t-114.5 -299t-52.5 -285q0 -20 -12 -26.5t-32 -8.5q-20 -1 -56 -5q0 102 31.5 223t85.5 255q55 134 135 314l-4 4q-54 -60 -135 -149t-186.5 -200t-216 -214t-194.5 -162q-98 -67 -152 -67q-58 0 -65 59q7 43 25 101q40 113 94 230.5 t146 301.5q90 184 142 296q52 114 78 204q20 60 21 96q0 28 -16.5 46t-44.5 18q-66 0 -144 -80q-98 -99 -180 -255q-82 -155 -96 -257q0 -22 -30 -45t-58 -27q-20 8 -21 20zM796 1476l268 272h109l182 -272h-63l-176 207l-264 -207h-56z" />
<glyph unicode="&#xdc;" horiz-adv-x="1251" d="M51 692q0 94 70 236q119 260 287 408q92 84 176 84q68 0 109.5 -41t41.5 -119q-4 -80 -61.5 -215.5t-175.5 -375t-176 -368.5t-74 -221q206 124 553 504q64 70 153 161t157.5 165.5t114.5 136t62 108.5q6 18 29 31.5t43 13.5q24 0 24 -24q0 -14 -8 -27 q-8 -18 -108 -210.5t-165 -334.5t-114.5 -299t-52.5 -285q0 -20 -12 -26.5t-32 -8.5q-20 -1 -56 -5q0 102 31.5 223t85.5 255q55 134 135 314l-4 4q-54 -60 -135 -149t-186.5 -200t-216 -214t-194.5 -162q-98 -67 -152 -67q-58 0 -65 59q7 43 25 101q40 113 94 230.5 t146 301.5q90 184 142 296q52 114 78 204q20 60 21 96q0 28 -16.5 46t-44.5 18q-66 0 -144 -80q-98 -99 -180 -255q-82 -155 -96 -257q0 -22 -30 -45t-58 -27q-20 8 -21 20zM848 1593q0 29 18 46t47 17q26 0 44.5 -17t18.5 -46q0 -28 -18 -44.5t-45 -16.5q-28 0 -46.5 16.5 t-18.5 44.5zM1216 1593q0 29 18 46t46 17q26 0 44.5 -17t18.5 -46q0 -28 -18.5 -44.5t-44.5 -16.5q-27 0 -45.5 16.5t-18.5 44.5z" />
<glyph unicode="&#xdd;" horiz-adv-x="1140" d="M72 92q5 92 96 268q238 509 308 669.5t83 238.5q0 6 2 20t2 20q-1 44 -39 44q-24 0 -84 -35q-35 -34 -91.5 -120t-103.5 -195.5t-61 -213.5q-20 -39 -100 -67q10 136 63 268.5t121 231.5t119 143q87 72 153 72q54 0 85 -38t31 -98q0 -40 -13 -67q-103 -250 -195.5 -462.5 t-158 -353.5t-78.5 -170t-23 -63q-22 -64 -24 -76q0 -16 16 -24q24 2 117 64q120 96 213 173.5t230.5 214t251.5 290.5t161 298l80 8q-63 -144 -357 -835q-94 -211 -156 -345t-127 -249t-118 -172q-25 -35 -71 -35q-12 0 -17 20q32 66 123 243.5t157.5 312t129.5 267.5 t119 265l-4 8q-48 -52 -152 -155t-210 -202t-154 -130q-26 -18 -57 -39t-60 -36.5t-65 -26.5t-74 -11q-60 6 -68 80zM833 1476l220 272h129l-277 -272h-72z" />
<glyph unicode="&#xde;" horiz-adv-x="1480" d="M-232 144q0 114 116 168q66 36 146 59t168.5 37t199 25t194.5 19q132 239 214 462q84 222 114 458q8 52 57 52q39 0 39 -56q-8 -126 -56.5 -296.5t-119 -335t-144.5 -284.5q291 16 447.5 79t207 149t50.5 196q0 76 -47.5 145t-189.5 69q-30 0 -44 -2q-8 0 -16 -4 q-39 8 -39 40q-1 30 67 31q145 0 223.5 -37.5t106.5 -99.5t31 -154q0 -75 -23.5 -139.5t-69.5 -119t-114 -95t-158 -66.5q-77 -22 -150.5 -34.5t-150.5 -19t-184 -9.5q-122 -168 -232.5 -252.5t-204.5 -110.5t-218 -34q-83 0 -151.5 43t-68.5 117zM-148 148q0 -78 148 -88 q57 8 80 8q84 14 147 39t136 87t165 178q-68 -3 -163 -12.5t-199 -29.5t-178 -50q-136 -52 -136 -132z" />
<glyph unicode="&#xdf;" horiz-adv-x="948" d="M-176 -496q25 104 62 216t101.5 285t93 253t50.5 158q-24 -27 -76.5 -82.5t-95.5 -97.5q-1 -2 -4.5 -4t-5.5 -4q-21 0 -21 32q0 8 2 16l2 8q30 42 77 89l99 99t80 91q16 54 59 177.5t113.5 284.5t162 290.5t181.5 144.5q34 4 52 4q156 0 156 -176q0 -100 -43 -192 t-90 -151t-163 -193q152 -62 152 -220v-40q-12 -134 -100 -239t-144 -149q53 0 117.5 32t113 67t142.5 109h6q21 0 21 -19q0 -23 -27 -65q-18 -30 -97.5 -81.5t-173.5 -90t-163 -38.5q-25 0 -43 6q-10 -10 -48 -23t-75 -13q-96 0 -121 76q12 32 60 32q26 0 57 -2t39 -2 q37 4 67.5 15t86.5 62t130 159q68 109 68 192q0 78 -43 125t-82 47q-16 0 -30.5 -8.5t-34.5 -24t-36 -24.5t-34 -11q-18 4 -25 11t-10 17t-8 24q3 56 151 96q28 9 105 105t138 210.5t61 190.5q0 10 -4 30q-11 60 -68 60q-55 0 -131 -60q-163 -136 -365 -768 q-46 -140 -95 -287t-112 -331.5t-89 -264.5t-40 -132q-14 -48 -37 -74.5t-43 -26.5q-28 0 -28 48v32z" />
<glyph unicode="&#xe0;" horiz-adv-x="831" d="M-64 236q0 252 336 416q145 74 273 73q50 0 106.5 -14.5t56.5 -50.5v-19q-14 -23 -24 -33q-98 52 -160 52q-40 0 -102 -20t-134 -59t-132 -93q-130 -116 -136 -216q0 -8 -1 -22q-1 -12 -1 -18q0 -160 78 -168q46 4 92 40q160 131 336 404q18 30 33 37.5t47 7.5 q33 -1 33 -13q-1 -5 -9 -28q-88 -180 -208 -436q82 18 168 78t200 170q20 0 23 -44q0 -30 -75.5 -92t-171.5 -121t-132 -71q-26 -8 -51 -8q-55 0 -61 40q7 33 16 56q14 40 23 63.5t13 32.5l-4 4q-12 -13 -57.5 -65.5t-81.5 -83.5q-35 -31 -81 -47q-6 0 -21 -2t-27 -2 q-164 0 -164 252zM324 1132h128l220 -272h-72z" />
<glyph unicode="&#xe1;" horiz-adv-x="831" d="M-64 236q0 252 336 416q145 74 273 73q50 0 106.5 -14.5t56.5 -50.5v-19q-14 -23 -24 -33q-98 52 -160 52q-40 0 -102 -20t-134 -59t-132 -93q-130 -116 -136 -216q0 -8 -1 -22q-1 -12 -1 -18q0 -160 78 -168q46 4 92 40q160 131 336 404q18 30 33 37.5t47 7.5 q33 -1 33 -13q-1 -5 -9 -28q-88 -180 -208 -436q82 18 168 78t200 170q20 0 23 -44q0 -30 -75.5 -92t-171.5 -121t-132 -71q-26 -8 -51 -8q-55 0 -61 40q7 33 16 56q14 40 23 63.5t13 32.5l-4 4q-12 -13 -57.5 -65.5t-81.5 -83.5q-35 -31 -81 -47q-6 0 -21 -2t-27 -2 q-164 0 -164 252zM456 860l220 272h129l-277 -272h-72z" />
<glyph unicode="&#xe2;" horiz-adv-x="831" d="M-64 236q0 252 336 416q145 74 273 73q50 0 106.5 -14.5t56.5 -50.5v-19q-14 -23 -24 -33q-98 52 -160 52q-40 0 -102 -20t-134 -59t-132 -93q-130 -116 -136 -216q0 -8 -1 -22q-1 -12 -1 -18q0 -160 78 -168q46 4 92 40q160 131 336 404q18 30 33 37.5t47 7.5 q33 -1 33 -13q-1 -5 -9 -28q-88 -180 -208 -436q82 18 168 78t200 170q20 0 23 -44q0 -30 -75.5 -92t-171.5 -121t-132 -71q-26 -8 -51 -8q-55 0 -61 40q7 33 16 56q14 40 23 63.5t13 32.5l-4 4q-12 -13 -57.5 -65.5t-81.5 -83.5q-35 -31 -81 -47q-6 0 -21 -2t-27 -2 q-164 0 -164 252zM252 860l268 272h109l182 -272h-63l-176 207l-264 -207h-56z" />
<glyph unicode="&#xe3;" horiz-adv-x="831" d="M-64 236q0 252 336 416q145 74 273 73q50 0 106.5 -14.5t56.5 -50.5v-19q-14 -23 -24 -33q-98 52 -160 52q-40 0 -102 -20t-134 -59t-132 -93q-130 -116 -136 -216q0 -8 -1 -22q-1 -12 -1 -18q0 -160 78 -168q46 4 92 40q160 131 336 404q18 30 33 37.5t47 7.5 q33 -1 33 -13q-1 -5 -9 -28q-88 -180 -208 -436q82 18 168 78t200 170q20 0 23 -44q0 -30 -75.5 -92t-171.5 -121t-132 -71q-26 -8 -51 -8q-55 0 -61 40q7 33 16 56q14 40 23 63.5t13 32.5l-4 4q-12 -13 -57.5 -65.5t-81.5 -83.5q-35 -31 -81 -47q-6 0 -21 -2t-27 -2 q-164 0 -164 252zM297 901q6 39 38.5 97t108.5 58q31 0 72.5 -14t82.5 -28t73 -14q30 0 49.5 8t30 20t17.5 28q7 18 11 28h48q-4 -51 -20 -81.5t-36 -45t-45.5 -21t-38.5 -8.5q-40 0 -75 10t-88 28.5t-73 18.5q-84 0 -100 -84h-55z" />
<glyph unicode="&#xe4;" horiz-adv-x="831" d="M-64 236q0 252 336 416q145 74 273 73q50 0 106.5 -14.5t56.5 -50.5v-19q-14 -23 -24 -33q-98 52 -160 52q-40 0 -102 -20t-134 -59t-132 -93q-130 -116 -136 -216q0 -8 -1 -22q-1 -12 -1 -18q0 -160 78 -168q46 4 92 40q160 131 336 404q18 30 33 37.5t47 7.5 q33 -1 33 -13q-1 -5 -9 -28q-88 -180 -208 -436q82 18 168 78t200 170q20 0 23 -44q0 -30 -75.5 -92t-171.5 -121t-132 -71q-26 -8 -51 -8q-55 0 -61 40q7 33 16 56q14 40 23 63.5t13 32.5l-4 4q-12 -13 -57.5 -65.5t-81.5 -83.5q-35 -31 -81 -47q-6 0 -21 -2t-27 -2 q-164 0 -164 252zM312 981q0 29 18 46t47 17q26 0 44.5 -17t18.5 -46q0 -28 -18 -44.5t-45 -16.5q-28 0 -46.5 16.5t-18.5 44.5zM680 981q0 29 18 46t46 17q26 0 44.5 -17t18.5 -46q0 -28 -18.5 -44.5t-44.5 -16.5q-27 0 -45.5 16.5t-18.5 44.5z" />
<glyph unicode="&#xe5;" horiz-adv-x="831" d="M-64 236q0 252 336 416q145 74 273 73q50 0 106.5 -14.5t56.5 -50.5v-19q-14 -23 -24 -33q-98 52 -160 52q-40 0 -102 -20t-134 -59t-132 -93q-130 -116 -136 -216q0 -8 -1 -22q-1 -12 -1 -18q0 -160 78 -168q46 4 92 40q160 131 336 404q18 30 33 37.5t47 7.5 q33 -1 33 -13q-1 -5 -9 -28q-88 -180 -208 -436q82 18 168 78t200 170q20 0 23 -44q0 -30 -75.5 -92t-171.5 -121t-132 -71q-26 -8 -51 -8q-55 0 -61 40q7 33 16 56q14 40 23 63.5t13 32.5l-4 4q-12 -13 -57.5 -65.5t-81.5 -83.5q-35 -31 -81 -47q-6 0 -21 -2t-27 -2 q-164 0 -164 252zM360 1028q0 81 59 138.5t140 57.5q84 0 142.5 -57t58.5 -139q0 -56 -26.5 -102t-72 -72t-102.5 -26q-81 0 -140 58t-59 142zM424 1028q0 -56 39 -93.5t96 -37.5q58 0 97.5 37.5t39.5 93.5q0 54 -39 92.5t-98 38.5q-56 0 -95.5 -38.5t-39.5 -92.5z" />
<glyph unicode="&#xe6;" horiz-adv-x="1140" d="M-68 213q0 93 35 191q34 78 132.5 154t220.5 124q120 49 216 49q50 0 84 -10l-4 -61q-34 6 -67 6q-98 0 -193.5 -42t-168.5 -102t-115 -114q-23 -30 -39.5 -86t-20.5 -113q3 -58 20 -89.5t60 -51.5q124 15 268 221q60 85 160 251q12 18 52 19q10 2 16 3t8 1 q53 62 150.5 115t165.5 53q52 0 88 -29.5t36 -81.5q0 -122 -83 -201t-209 -115t-260 -36q0 -33 -5 -53q4 -77 34.5 -109t94.5 -38q136 0 278 94t206 158q1 1 3 2.5t5 1.5q20 0 20 -40q0 -20 -28 -48q-103 -103 -245.5 -173.5t-270.5 -70.5q-64 10 -96.5 40.5t-43.5 70.5 t-16 61h-4q-6 -34 -13 -75t-24 -67t-51 -26q-24 0 -25 20q2 16 19 67t26 89q-60 -68 -92 -100t-76 -56t-100 -24q-76 3 -112 65.5t-36 155.5zM512 344q36 -6 70 -6q98 0 184.5 42t138 105t51.5 115q0 64 -63 64q-52 0 -133 -50.5t-150.5 -125t-97.5 -144.5z" />
<glyph unicode="&#xe7;" horiz-adv-x="643" d="M-131 -332l31 48l58 -29t50 -17t76 -6q52 0 84 24t32 60q0 88 -128 96q-44 -8 -52 -8l36 78l36 78q-133 43 -133 223q0 159 102 286q103 127 259 203q50 22 116 23q63 0 101.5 -24t38.5 -70q0 -61 -30 -127t-81 -78q-32 0 -37 28q8 26 34 73q28 47 34 75q0 60 -72 60 q-30 0 -56 -12q-70 -32 -148.5 -99t-132.5 -153t-54 -168q0 -96 31 -130q32 -34 96 -38q20 4 53 4q74 8 167 76t224 180q11 0 17.5 -13t6.5 -31q0 -24 -8 -32q-84 -89 -217 -174.5t-263 -85.5l-56 -96q4 0 12 4q85 -8 141 -35t56 -97q0 -68 -64.5 -106.5t-148.5 -38.5 q-70 2 -128.5 20t-82.5 29z" />
<glyph unicode="&#xe8;" horiz-adv-x="643" d="M-76 260q0 122 110 247t250 189q76 28 120 29q54 0 91 -27q37 -28 37 -78q0 -182 -154 -269t-370 -87q0 -32 -4 -51q3 -79 36.5 -118t115.5 -39q92 8 193 70t255 194h4q12 0 12 -31q0 -33 -24 -57q-82 -70 -151 -120t-164 -89t-201 -39q-89 6 -122.5 78t-33.5 198z M24 336q10 -2 32 -4t32 -4q76 5 160 36.5t142 91.5t58 140q0 60 -63 60q-74 0 -180 -84q-161 -138 -181 -236zM193 1132h128l220 -272h-72z" />
<glyph unicode="&#xe9;" horiz-adv-x="643" d="M-76 260q0 122 110 247t250 189q76 28 120 29q54 0 91 -27q37 -28 37 -78q0 -182 -154 -269t-370 -87q0 -32 -4 -51q3 -79 36.5 -118t115.5 -39q92 8 193 70t255 194h4q12 0 12 -31q0 -33 -24 -57q-82 -70 -151 -120t-164 -89t-201 -39q-89 6 -122.5 78t-33.5 198z M24 336q10 -2 32 -4t32 -4q76 5 160 36.5t142 91.5t58 140q0 60 -63 60q-74 0 -180 -84q-161 -138 -181 -236zM325 860l220 272h129l-277 -272h-72z" />
<glyph unicode="&#xea;" horiz-adv-x="643" d="M-76 260q0 122 110 247t250 189q76 28 120 29q54 0 91 -27q37 -28 37 -78q0 -182 -154 -269t-370 -87q0 -32 -4 -51q3 -79 36.5 -118t115.5 -39q92 8 193 70t255 194h4q12 0 12 -31q0 -33 -24 -57q-82 -70 -151 -120t-164 -89t-201 -39q-89 6 -122.5 78t-33.5 198z M24 336q10 -2 32 -4t32 -4q76 5 160 36.5t142 91.5t58 140q0 60 -63 60q-74 0 -180 -84q-161 -138 -181 -236zM125 860l268 272h109l182 -272h-63l-176 207l-264 -207h-56z" />
<glyph unicode="&#xeb;" horiz-adv-x="643" d="M-76 260q0 122 110 247t250 189q76 28 120 29q54 0 91 -27q37 -28 37 -78q0 -182 -154 -269t-370 -87q0 -32 -4 -51q3 -79 36.5 -118t115.5 -39q92 8 193 70t255 194h4q12 0 12 -31q0 -33 -24 -57q-82 -70 -151 -120t-164 -89t-201 -39q-89 6 -122.5 78t-33.5 198z M24 336q10 -2 32 -4t32 -4q76 5 160 36.5t142 91.5t58 140q0 60 -63 60q-74 0 -180 -84q-161 -138 -181 -236zM181 977q0 29 18 46t47 17q26 0 44.5 -17t18.5 -46q0 -28 -18 -44.5t-45 -16.5q-28 0 -46.5 16.5t-18.5 44.5zM549 977q0 29 18 46t46 17q26 0 44.5 -17t18.5 -46 q0 -28 -18.5 -44.5t-44.5 -16.5q-27 0 -45.5 16.5t-18.5 44.5z" />
<glyph unicode="&#xec;" horiz-adv-x="456" d="M-76 256q0 24 19.5 51t50 54t47.5 43q4 4 54.5 48.5t60.5 63.5q14 26 42 91t46 105h96q0 -4 -129.5 -289t-134.5 -298q-4 0 -12 -33l8 -8q55 18 105 52.5t121 92.5q70 59 106 83q12 12 16 12q16 0 16 -35q0 -25 -24 -49q-126 -116 -332 -228q-32 -16 -72 -16 q-49 0 -49 51q5 42 27 93.5t90 199.5h-4q-4 0 -105 -100q-14 -14 -18 -17q-2 2 -8 4q-7 3 -9 5q-8 0 -8 24zM109 1132h128l220 -272h-72z" />
<glyph unicode="&#xed;" horiz-adv-x="456" d="M-76 256q0 24 19.5 51t50 54t47.5 43q4 4 54.5 48.5t60.5 63.5q14 26 42 91t46 105h96q0 -4 -129.5 -289t-134.5 -298q-4 0 -12 -33l8 -8q55 18 105 52.5t121 92.5q70 59 106 83q12 12 16 12q16 0 16 -35q0 -25 -24 -49q-126 -116 -332 -228q-32 -16 -72 -16 q-49 0 -49 51q5 42 27 93.5t90 199.5h-4q-4 0 -105 -100q-14 -14 -18 -17q-2 2 -8 4q-7 3 -9 5q-8 0 -8 24zM241 860l220 272h129l-277 -272h-72z" />
<glyph unicode="&#xee;" horiz-adv-x="456" d="M-76 256q0 24 19.5 51t50 54t47.5 43q4 4 54.5 48.5t60.5 63.5q14 26 42 91t46 105h96q0 -4 -129.5 -289t-134.5 -298q-4 0 -12 -33l8 -8q55 18 105 52.5t121 92.5q70 59 106 83q12 12 16 12q16 0 16 -35q0 -25 -24 -49q-126 -116 -332 -228q-32 -16 -72 -16 q-49 0 -49 51q5 42 27 93.5t90 199.5h-4q-4 0 -105 -100q-14 -14 -18 -17q-2 2 -8 4q-7 3 -9 5q-8 0 -8 24zM37 860l268 272h109l182 -272h-63l-176 207l-264 -207h-56z" />
<glyph unicode="&#xef;" horiz-adv-x="456" d="M-76 256q0 24 19.5 51t50 54t47.5 43q4 4 54.5 48.5t60.5 63.5q14 26 42 91t46 105h96q0 -4 -129.5 -289t-134.5 -298q-4 0 -12 -33l8 -8q55 18 105 52.5t121 92.5q70 59 106 83q12 12 16 12q16 0 16 -35q0 -25 -24 -49q-126 -116 -332 -228q-32 -16 -72 -16 q-49 0 -49 51q5 42 27 93.5t90 199.5h-4q-4 0 -105 -100q-14 -14 -18 -17q-2 2 -8 4q-7 3 -9 5q-8 0 -8 24zM97 981q0 29 18 46t47 17q26 0 44.5 -17t18.5 -46q0 -28 -18 -44.5t-45 -16.5q-28 0 -46.5 16.5t-18.5 44.5zM465 981q0 29 18 46t46 17q26 0 44.5 -17t18.5 -46 q0 -28 -18.5 -44.5t-44.5 -16.5q-27 0 -45.5 16.5t-18.5 44.5z" />
<glyph unicode="&#xf0;" d="M-82 236q0 8 1 24t1 24q6 92 50.5 180.5t117.5 146t160 65.5q22 0 35.5 -11t13.5 -28q0 -35 -37 -41q-130 -32 -183.5 -125t-76.5 -248q4 -73 25 -118t79 -54q68 7 115 57q60 56 101.5 116t77.5 144t73 204q65 240 65 428v52l-323 -65q0 66 22.5 85.5t67.5 27.5l229 45 q-2 49 -12 131t-12 129q0 55 41 55q17 0 33 -10q15 -10 18 -26q28 -134 33 -265l358 74q-7 -56 -26.5 -77.5t-65.5 -31.5l-262 -49q0 -111 -6.5 -194t-23.5 -163.5t-50 -180t-86 -230.5q0 -5 -6 -23q6 -36 51 -36q12 0 29 7t32 18t29 21q14 12 41 34q9 -15 9 -35 q0 -52 -47 -82.5t-105 -42.5q-34 3 -57.5 17.5t-26.5 33.5q-68 -104 -153 -169.5t-179 -65.5q-80 0 -125 55t-45 197z" />
<glyph unicode="&#xf1;" horiz-adv-x="907" d="M-80 260q0 30 37 64q21 26 77 78t91 94q12 16 37 81t52.5 100t74.5 35q23 -6 23 -28q0 -12 -17 -44t-19 -36q-26 -56 -62 -135t-66 -145t-60 -128h8q44 45 141.5 141.5t216 203.5t179.5 143q4 2 25 15.5t34.5 19.5t28.5 6q19 0 35 -12.5t16 -32.5q0 -24 -29 -82t-35 -74 q-142 -318 -184 -412q0 -2 -8 -20q0 -4 16 -12q16 8 21 8q41 16 147 100t168 136h8q12 0 13 -21q0 -31 -11 -49q-10 -18 -38 -41q-71 -62 -172.5 -128.5t-159.5 -84.5q-12 -4 -43 -4q-51 0 -57 41q21 82 55.5 162.5t76 161.5t97.5 192q6 15 6 27q0 8 -6 8q-11 0 -29 -12 q-78 -52 -149 -117.5t-147 -146t-156 -165t-148 -143.5q-8 -8 -32 -8q-36 0 -36 28v17q34 86 111 291q-21 -23 -56 -60.5t-51 -48.5l-4 -4q-20 7 -20 41zM305 901q6 39 38.5 97t108.5 58q31 0 72.5 -14t82.5 -28t73 -14q30 0 49.5 8t30 20t17.5 28q7 18 11 28h48 q-4 -51 -20 -81.5t-36 -45t-45.5 -21t-38.5 -8.5q-40 0 -75 10t-88 28.5t-73 18.5q-84 0 -100 -84h-55z" />
<glyph unicode="&#xf2;" d="M-72 244v20q4 158 90 266.5t171 157.5q85 50 127 64q12 4 32 4q39 0 39 -35q-1 -32 -27 -37q-176 -52 -264 -178t-92 -266q8 -63 14 -91t27 -52.5t63 -28.5q54 2 120 50.5t96 94.5q-36 41 -44 143q4 100 46 195.5t130 95.5q48 0 60 -29q12 -30 12 -86q0 -63 -18 -122.5 t-43 -105.5t-35 -64q6 -2 17 -6t20 -6q36 2 74 24t72.5 51t36.5 29q8 0 8 -33q0 -63 -72 -101t-140 -42q-51 10 -61 12q-78 -86 -145.5 -127.5t-145.5 -44.5q-82 0 -125 56.5t-43 191.5zM348 364q8 -62 29 -88q34 67 59 140.5t25 115.5q-1 36 -13 36q-36 0 -66 -64t-34 -140 zM188 1132h128l220 -272h-72z" />
<glyph unicode="&#xf3;" d="M-72 244v20q4 158 90 266.5t171 157.5q85 50 127 64q12 4 32 4q39 0 39 -35q-1 -32 -27 -37q-176 -52 -264 -178t-92 -266q8 -63 14 -91t27 -52.5t63 -28.5q54 2 120 50.5t96 94.5q-36 41 -44 143q4 100 46 195.5t130 95.5q48 0 60 -29q12 -30 12 -86q0 -63 -18 -122.5 t-43 -105.5t-35 -64q6 -2 17 -6t20 -6q36 2 74 24t72.5 51t36.5 29q8 0 8 -33q0 -63 -72 -101t-140 -42q-51 10 -61 12q-78 -86 -145.5 -127.5t-145.5 -44.5q-82 0 -125 56.5t-43 191.5zM348 364q8 -62 29 -88q34 67 59 140.5t25 115.5q-1 36 -13 36q-36 0 -66 -64t-34 -140 zM316 860l220 272h129l-277 -272h-72z" />
<glyph unicode="&#xf4;" d="M-72 244v20q4 158 90 266.5t171 157.5q85 50 127 64q12 4 32 4q39 0 39 -35q-1 -32 -27 -37q-176 -52 -264 -178t-92 -266q8 -63 14 -91t27 -52.5t63 -28.5q54 2 120 50.5t96 94.5q-36 41 -44 143q4 100 46 195.5t130 95.5q48 0 60 -29q12 -30 12 -86q0 -63 -18 -122.5 t-43 -105.5t-35 -64q6 -2 17 -6t20 -6q36 2 74 24t72.5 51t36.5 29q8 0 8 -33q0 -63 -72 -101t-140 -42q-51 10 -61 12q-78 -86 -145.5 -127.5t-145.5 -44.5q-82 0 -125 56.5t-43 191.5zM348 364q8 -62 29 -88q34 67 59 140.5t25 115.5q-1 36 -13 36q-36 0 -66 -64t-34 -140 zM116 860l268 272h109l182 -272h-63l-176 207l-264 -207h-56z" />
<glyph unicode="&#xf5;" d="M-72 244v20q4 158 90 266.5t171 157.5q85 50 127 64q12 4 32 4q39 0 39 -35q-1 -32 -27 -37q-176 -52 -264 -178t-92 -266q8 -63 14 -91t27 -52.5t63 -28.5q54 2 120 50.5t96 94.5q-36 41 -44 143q4 100 46 195.5t130 95.5q48 0 60 -29q12 -30 12 -86q0 -63 -18 -122.5 t-43 -105.5t-35 -64q6 -2 17 -6t20 -6q36 2 74 24t72.5 51t36.5 29q8 0 8 -33q0 -63 -72 -101t-140 -42q-51 10 -61 12q-78 -86 -145.5 -127.5t-145.5 -44.5q-82 0 -125 56.5t-43 191.5zM348 364q8 -62 29 -88q34 67 59 140.5t25 115.5q-1 36 -13 36q-36 0 -66 -64t-34 -140 zM162 901q6 39 38.5 97t108.5 58q31 0 72.5 -14t82.5 -28t73 -14q30 0 49.5 8t30 20t17.5 28q7 18 11 28h48q-4 -51 -20 -81.5t-36 -45t-45.5 -21t-38.5 -8.5q-40 0 -75 10t-88 28.5t-73 18.5q-84 0 -100 -84h-55z" />
<glyph unicode="&#xf6;" d="M-72 244v20q4 158 90 266.5t171 157.5q85 50 127 64q12 4 32 4q39 0 39 -35q-1 -32 -27 -37q-176 -52 -264 -178t-92 -266q8 -63 14 -91t27 -52.5t63 -28.5q54 2 120 50.5t96 94.5q-36 41 -44 143q4 100 46 195.5t130 95.5q48 0 60 -29q12 -30 12 -86q0 -63 -18 -122.5 t-43 -105.5t-35 -64q6 -2 17 -6t20 -6q36 2 74 24t72.5 51t36.5 29q8 0 8 -33q0 -63 -72 -101t-140 -42q-51 10 -61 12q-78 -86 -145.5 -127.5t-145.5 -44.5q-82 0 -125 56.5t-43 191.5zM348 364q8 -62 29 -88q34 67 59 140.5t25 115.5q-1 36 -13 36q-36 0 -66 -64t-34 -140 zM176 981q0 29 18 46t47 17q26 0 44.5 -17t18.5 -46q0 -28 -18 -44.5t-45 -16.5q-28 0 -46.5 16.5t-18.5 44.5zM544 981q0 29 18 46t46 17q26 0 44.5 -17t18.5 -46q0 -28 -18.5 -44.5t-44.5 -16.5q-27 0 -45.5 16.5t-18.5 44.5z" />
<glyph unicode="&#xf8;" d="M-148 -205l136 229q-60 49 -60 199q0 43 12 154q16 88 94 178t185 147.5t205 57.5l116 208h76l-128 -216q70 0 92 -27q4 -1 4 -21q0 -26 -44 -32q-12 12 -104 12q-86 0 -165 -36t-137 -98.5t-92 -143t-38 -166.5q4 -73 26 -118q22 -46 82 -54q45 2 92 33t83.5 69t36.5 43 q-12 16 -30 58.5t-18 105.5q14 104 57 189.5t128 85.5q37 0 52 -34t15 -78q0 -136 -96 -300q6 -2 19 -6t20 -6q34 2 62.5 19t65.5 46.5t53 38.5q8 0 8 -29q0 -61 -73 -105q-73 -42 -139 -46q-41 8 -61 16q-162 -172 -295 -172q-16 0 -49 8l-119 -209h-72zM348 377 q8 -61 29 -101q88 172 88 252q-1 40 -21 40q-15 0 -37.5 -28t-39.5 -72.5t-19 -90.5z" />
<glyph unicode="&#xf9;" horiz-adv-x="907" d="M-68 260q0 32 21 52q28 28 86.5 86t85.5 86q20 24 37.5 55.5t38.5 79t35 73.5q15 25 28 25q64 -1 64 -9q-16 -68 -49 -139t-87 -169t-80 -152t-48 -117q0 -9 16 -15q22 8 45 24q72 54 169 140t187 176q89 90 147 160q38 48 51.5 64.5t20 22t21.5 14.5h10q14 0 33.5 -2.5 t27.5 -2.5q-32 -82 -108 -236.5t-107 -219.5q-31 -66 -61 -156q0 -11 16 -16q10 2 48 20q72 44 164 117.5t140 114.5q8 0 9 -33q0 -61 -46.5 -99t-150.5 -104q-40 -26 -79.5 -51.5t-77.5 -41t-78 -15.5q-47 0 -53 49q12 64 39 125.5t73 149.5t68 140l-4 5q-84 -87 -145 -146 t-125 -114t-126 -102t-116 -83q-34 -20 -80 -20q-48 0 -48 28q0 7 2.5 14.5t2.5 12.5q6 14 58.5 143.5t68.5 157.5l-4 4q-21 -28 -59.5 -73t-59.5 -55q-21 0 -21 32zM352 1132h128l220 -272h-72z" />
<glyph unicode="&#xfa;" horiz-adv-x="907" d="M-68 260q0 32 21 52q28 28 86.5 86t85.5 86q20 24 37.5 55.5t38.5 79t35 73.5q15 25 28 25q64 -1 64 -9q-16 -68 -49 -139t-87 -169t-80 -152t-48 -117q0 -9 16 -15q22 8 45 24q72 54 169 140t187 176q89 90 147 160q38 48 51.5 64.5t20 22t21.5 14.5h10q14 0 33.5 -2.5 t27.5 -2.5q-32 -82 -108 -236.5t-107 -219.5q-31 -66 -61 -156q0 -11 16 -16q10 2 48 20q72 44 164 117.5t140 114.5q8 0 9 -33q0 -61 -46.5 -99t-150.5 -104q-40 -26 -79.5 -51.5t-77.5 -41t-78 -15.5q-47 0 -53 49q12 64 39 125.5t73 149.5t68 140l-4 5q-84 -87 -145 -146 t-125 -114t-126 -102t-116 -83q-34 -20 -80 -20q-48 0 -48 28q0 7 2.5 14.5t2.5 12.5q6 14 58.5 143.5t68.5 157.5l-4 4q-21 -28 -59.5 -73t-59.5 -55q-21 0 -21 32zM480 860l220 272h129l-277 -272h-72z" />
<glyph unicode="&#xfb;" horiz-adv-x="907" d="M-68 260q0 32 21 52q28 28 86.5 86t85.5 86q20 24 37.5 55.5t38.5 79t35 73.5q15 25 28 25q64 -1 64 -9q-16 -68 -49 -139t-87 -169t-80 -152t-48 -117q0 -9 16 -15q22 8 45 24q72 54 169 140t187 176q89 90 147 160q38 48 51.5 64.5t20 22t21.5 14.5h10q14 0 33.5 -2.5 t27.5 -2.5q-32 -82 -108 -236.5t-107 -219.5q-31 -66 -61 -156q0 -11 16 -16q10 2 48 20q72 44 164 117.5t140 114.5q8 0 9 -33q0 -61 -46.5 -99t-150.5 -104q-40 -26 -79.5 -51.5t-77.5 -41t-78 -15.5q-47 0 -53 49q12 64 39 125.5t73 149.5t68 140l-4 5q-84 -87 -145 -146 t-125 -114t-126 -102t-116 -83q-34 -20 -80 -20q-48 0 -48 28q0 7 2.5 14.5t2.5 12.5q6 14 58.5 143.5t68.5 157.5l-4 4q-21 -28 -59.5 -73t-59.5 -55q-21 0 -21 32zM280 860l268 272h109l182 -272h-63l-176 207l-264 -207h-56z" />
<glyph unicode="&#xfc;" horiz-adv-x="907" d="M-68 260q0 32 21 52q28 28 86.5 86t85.5 86q20 24 37.5 55.5t38.5 79t35 73.5q15 25 28 25q64 -1 64 -9q-16 -68 -49 -139t-87 -169t-80 -152t-48 -117q0 -9 16 -15q22 8 45 24q72 54 169 140t187 176q89 90 147 160q38 48 51.5 64.5t20 22t21.5 14.5h10q14 0 33.5 -2.5 t27.5 -2.5q-32 -82 -108 -236.5t-107 -219.5q-31 -66 -61 -156q0 -11 16 -16q10 2 48 20q72 44 164 117.5t140 114.5q8 0 9 -33q0 -61 -46.5 -99t-150.5 -104q-40 -26 -79.5 -51.5t-77.5 -41t-78 -15.5q-47 0 -53 49q12 64 39 125.5t73 149.5t68 140l-4 5q-84 -87 -145 -146 t-125 -114t-126 -102t-116 -83q-34 -20 -80 -20q-48 0 -48 28q0 7 2.5 14.5t2.5 12.5q6 14 58.5 143.5t68.5 157.5l-4 4q-21 -28 -59.5 -73t-59.5 -55q-21 0 -21 32zM336 981q0 29 18 46t47 17q26 0 44.5 -17t18.5 -46q0 -28 -18 -44.5t-45 -16.5q-28 0 -46.5 16.5 t-18.5 44.5zM704 981q0 29 18 46t46 17q26 0 44.5 -17t18.5 -46q0 -28 -18.5 -44.5t-44.5 -16.5q-27 0 -45.5 16.5t-18.5 44.5z" />
<glyph unicode="&#xfd;" horiz-adv-x="872" d="M-76 256q0 32 35 68q24 26 101 100q78 74 104 112q16 20 42.5 79t41.5 93h88q-23 -64 -53 -124t-80.5 -158t-79 -162.5t-47.5 -134.5q0 -5 8 -13q22 8 56 32q54 42 168 154t217 225t139 169q4 8 36 8q52 0 52 -16q-34 -76 -96 -208l-120 -264q-60 -132 -96 -208l4 -2 l4 -2q42 35 121 102.5t172 145.5t99 80q8 0 14 -12t6 -31q0 -30 -16 -41q-23 -18 -112.5 -92t-164.5 -139t-141 -127t-82 -90q-32 -58 -90 -182t-66 -146q-6 -16 -26 -36t-50 -20q-48 0 -52 52q2 7 4 20.5t4 19.5q19 90 98.5 212t126.5 172q21 26 32 49t29 71t31 76 q16 33 70.5 152t89.5 192h-5q-40 -38 -132.5 -133t-155 -152.5t-127.5 -99.5q-91 -51 -133 -51q-39 0 -39 37q0 19 14 63q35 88 65 149.5t44 86.5q-1 2 -2.5 4t-1.5 4q-28 -29 -57 -58.5t-58 -58.5q-8 1 -20.5 8t-12.5 25zM413 860l220 272h129l-277 -272h-72z" />
<glyph unicode="&#xfe;" horiz-adv-x="948" d="M-104 -524q2 89 55 292.5t118 406.5t91 253v4q-186 -174 -211 -200q-25 0 -25 32q0 26 25 52q24 27 74.5 75.5t83.5 85t53 72.5q8 14 47 118.5t92 250.5t107 297q56 151 82 221q12 40 40 40q40 0 40 -52v-19q-26 -95 -99.5 -301t-143.5 -393t-102 -271h9q210 286 360 291 q83 0 123.5 -38.5t40.5 -124.5q0 -46 -12 -99q-22 -108 -98 -205.5t-122 -142.5q66 0 133 29.5t127 73.5t128 104h8q12 0 12 -29q0 -33 -29 -63q-204 -188 -471 -203q-24 0 -70 -18.5t-73 -18.5q-90 0 -125 68q0 32 68 32h32q68 0 84 -4q6 2 15.5 4t13.5 4q44 22 107.5 94 t113.5 161q52 89 62 157v43q0 101 -68 101q-38 0 -88 -32q-92 -60 -170 -161t-111 -156q-55 -91 -92 -195.5t-62 -212.5t-46 -235.5t-27 -159.5t-28 -60t-40 -28q-32 0 -32 60z" />
<glyph unicode="&#xff;" horiz-adv-x="872" d="M-76 256q0 32 35 68q24 26 101 100q78 74 104 112q16 20 42.5 79t41.5 93h88q-23 -64 -53 -124t-80.5 -158t-79 -162.5t-47.5 -134.5q0 -5 8 -13q22 8 56 32q54 42 168 154t217 225t139 169q4 8 36 8q52 0 52 -16q-34 -76 -96 -208l-120 -264q-60 -132 -96 -208l4 -2 l4 -2q42 35 121 102.5t172 145.5t99 80q8 0 14 -12t6 -31q0 -30 -16 -41q-23 -18 -112.5 -92t-164.5 -139t-141 -127t-82 -90q-32 -58 -90 -182t-66 -146q-6 -16 -26 -36t-50 -20q-48 0 -52 52q2 7 4 20.5t4 19.5q19 90 98.5 212t126.5 172q21 26 32 49t29 71t31 76 q16 33 70.5 152t89.5 192h-5q-40 -38 -132.5 -133t-155 -152.5t-127.5 -99.5q-91 -51 -133 -51q-39 0 -39 37q0 19 14 63q35 88 65 149.5t44 86.5q-1 2 -2.5 4t-1.5 4q-28 -29 -57 -58.5t-58 -58.5q-8 1 -20.5 8t-12.5 25zM273 977q0 29 18 46t47 17q26 0 44.5 -17t18.5 -46 q0 -28 -18 -44.5t-45 -16.5q-28 0 -46.5 16.5t-18.5 44.5zM641 977q0 29 18 46t46 17q26 0 44.5 -17t18.5 -46q0 -28 -18.5 -44.5t-44.5 -16.5q-27 0 -45.5 16.5t-18.5 44.5z" />
<glyph unicode="&#x131;" horiz-adv-x="456" d="M-76 256q0 24 19.5 51t50 54t47.5 43q4 4 54.5 48.5t60.5 63.5q14 26 42 91t46 105h96q0 -4 -129.5 -289t-134.5 -298q-4 0 -12 -33l8 -8q55 18 105 52.5t121 92.5q70 59 106 83q12 12 16 12q16 0 16 -35q0 -25 -24 -49q-126 -116 -332 -228q-32 -16 -72 -16 q-49 0 -49 51q5 42 27 93.5t90 199.5h-4q-4 0 -105 -100q-14 -14 -18 -17q-2 2 -8 4q-7 3 -9 5q-8 0 -8 24z" />
<glyph unicode="&#x152;" horiz-adv-x="1745" d="M-16 297q0 125 33.5 254.5t94 251t143.5 230.5t177 196q128 114 241 154.5t191 40.5h25q17 -10 24 -16t7 -24q-3 -21 -11.5 -23t-57.5 -7t-103 -23q-93 -28 -191.5 -103.5t-187.5 -185.5t-154 -237q-153 -322 -153 -504q0 -28 2 -41q9 -101 70 -149q60 -47 146 -51 q93 4 167.5 44t121.5 86t137.5 144t145.5 141q36 28 125 88q35 31 35 49q0 24 -16 44q-60 101 -68 196q2 54 18 100t35 80t35 60q-6 100 -113 100q-84 0 -154.5 -58t-118.5 -144t-71 -171l-88 -35l-2 4q16 110 77 222t157.5 185t212.5 73q64 0 103.5 -28t45.5 -76 q90 110 211.5 185t247.5 75q87 0 139.5 -44t52.5 -104q0 -46 -62.5 -140.5t-141 -187t-101.5 -108.5q-46 11 -51 49q22 42 52 79.5t84 99t77 91.5q59 78 59 113q0 34 -36 51t-76 17q-51 0 -113 -24t-126.5 -68t-121.5 -103q-128 -141 -135 -309q5 -92 43 -168q25 -51 25 -80 q0 -34 -48 -72q-75 -58 -126 -97t-87.5 -90t-42.5 -120q8 -145 164 -145q110 6 228 64t204 138t109 146q6 8 39 8q18 0 33.5 -2t13.5 -2q-12 -52 -70 -123t-147 -140t-193.5 -116t-204.5 -53q-90 0 -147 24t-84 59t-35.5 69t-9.5 40q-192 -192 -444 -192q-126 6 -193 94 t-67 219z" />
<glyph unicode="&#x153;" horiz-adv-x="1140" d="M-51 268q2 113 60.5 215.5t150 173.5t188.5 95q4 0 12 2t12 2q36 -8 40 -16v-23q0 -24 -25 -29q-106 -32 -177 -89t-110 -121t-55.5 -126t-16.5 -108q6 -84 23.5 -130t83.5 -46q96 0 205 137q64 72 107 158t49 157q0 52 -35 52q-38 0 -69.5 -29t-51.5 -63t-47 -84 q-4 -6 -8.5 -12t-10.5 -10t-18 -6q-3 4 -17.5 9t-19.5 23q32 92 101.5 167.5t154.5 75.5q88 0 88 -88q0 -2 -2 -13q-2 -12 -2 -18h9q174 206 340 207q56 0 94 -26.5t38 -84.5q0 -84 -56 -160.5t-144 -123.5q-82 -44 -156 -66q-74 -20 -188 -30q3 -86 39.5 -131t97.5 -45 q61 2 123 25t118 60.5t113 83t109 87.5q9 8 12 8q16 0 16 -39q0 -27 -20 -49q-22 -15 -103 -76.5t-132 -92.5t-116 -53t-145 -26q-74 0 -129.5 55t-58.5 149h-4q-150 -204 -304 -204q-55 0 -90 22.5t-54 82.5t-19 171zM500 303q122 20 173 31.5t91 37.5q59 40 97.5 70 t68.5 72.5t30 89.5q0 30 -19 47t-52 17q-117 0 -273 -168q-48 -54 -76 -98t-40 -99z" />
<glyph unicode="&#x178;" horiz-adv-x="1140" d="M232 1619q0 29 18 46t47 17q26 0 44.5 -17t18.5 -46q0 -28 -18 -44.5t-45 -16.5q-28 0 -46.5 16.5t-18.5 44.5zM600 1619q0 29 18 46t46 17q26 0 44.5 -17t18.5 -46q0 -28 -18.5 -44.5t-44.5 -16.5q-27 0 -45.5 16.5t-18.5 44.5zM72 92q5 92 96 268q238 509 308 669.5 t83 238.5q0 6 2 20t2 20q-1 44 -39 44q-24 0 -84 -35q-35 -34 -91.5 -120t-103.5 -195.5t-61 -213.5q-20 -39 -100 -67q10 136 63 268.5t121 231.5t119 143q87 72 153 72q54 0 85 -38t31 -98q0 -40 -13 -67q-103 -250 -195.5 -462.5t-158 -353.5t-78.5 -170t-23 -63 q-22 -64 -24 -76q0 -16 16 -24q24 2 117 64q120 96 213 173.5t230.5 214t251.5 290.5t161 298l80 8q-63 -144 -357 -835q-94 -211 -156 -345t-127 -249t-118 -172q-25 -35 -71 -35q-12 0 -17 20q32 66 123 243.5t157.5 312t129.5 267.5t119 265l-4 8q-48 -52 -152 -155 t-210 -202t-154 -130q-26 -18 -57 -39t-60 -36.5t-65 -26.5t-74 -11q-60 6 -68 80z" />
<glyph unicode="&#x2c6;" horiz-adv-x="456" d="M0 860l268 272h109l182 -272h-63l-176 207l-264 -207h-56z" />
<glyph unicode="&#x2da;" horiz-adv-x="456" d="M108 1028q0 81 59 138.5t140 57.5q84 0 142.5 -57t58.5 -139q0 -56 -26.5 -102t-72 -72t-102.5 -26q-81 0 -140 58t-59 142zM172 1028q0 -56 39 -93.5t96 -37.5q58 0 97.5 37.5t39.5 93.5q0 54 -39 92.5t-98 38.5q-56 0 -95.5 -38.5t-39.5 -92.5z" />
<glyph unicode="&#x2dc;" horiz-adv-x="456" d="M41 897q6 39 38.5 97t108.5 58q31 0 72.5 -14t82.5 -28t73 -14q30 0 49.5 8t30 20t17.5 28q7 18 11 28h48q-4 -51 -20 -81.5t-36 -45t-45.5 -21t-38.5 -8.5q-40 0 -75 10t-88 28.5t-73 18.5q-84 0 -100 -84h-55z" />
<glyph unicode="&#x2000;" horiz-adv-x="920" />
<glyph unicode="&#x2001;" horiz-adv-x="1841" />
<glyph unicode="&#x2002;" horiz-adv-x="920" />
<glyph unicode="&#x2003;" horiz-adv-x="1841" />
<glyph unicode="&#x2004;" horiz-adv-x="613" />
<glyph unicode="&#x2005;" horiz-adv-x="460" />
<glyph unicode="&#x2006;" horiz-adv-x="306" />
<glyph unicode="&#x2007;" horiz-adv-x="306" />
<glyph unicode="&#x2008;" horiz-adv-x="230" />
<glyph unicode="&#x2009;" horiz-adv-x="368" />
<glyph unicode="&#x200a;" horiz-adv-x="102" />
<glyph unicode="&#x2010;" d="M41 324q14 51 23 62q8 10 36 10h408q-18 -55 -26 -64q-8 -8 -42 -8h-399z" />
<glyph unicode="&#x2011;" d="M41 324q14 51 23 62q8 10 36 10h408q-18 -55 -26 -64q-8 -8 -42 -8h-399z" />
<glyph unicode="&#x2012;" d="M41 324q14 51 23 62q8 10 36 10h408q-18 -55 -26 -64q-8 -8 -42 -8h-399z" />
<glyph unicode="&#x2013;" horiz-adv-x="1024" d="M0 340l12 47h1028l-16 -47h-1024z" />
<glyph unicode="&#x2014;" horiz-adv-x="2048" d="M0 465v75h1616v-75h-1616z" />
<glyph unicode="&#x2018;" horiz-adv-x="303" d="M148 1096q4 12 16 36q14 20 75 110t85 126l40 60l20 -4l20 -4q-26 -70 -70 -184t-45 -116q-6 -18 -15 -23q-8 -5 -34 -5q-55 0 -76 -4q-8 0 -16 8z" />
<glyph unicode="&#x2019;" horiz-adv-x="303" d="M360 1188q28 74 57 148.5t58 148.5q4 6 9.5 14t11.5 11q5 4 20 6q22 0 46 2t30 2q24 0 24 -12t-20 -40l-192 -292z" />
<glyph unicode="&#x201c;" horiz-adv-x="608" d="M148 1100q6 18 16 32q14 20 75 110t85 126l40 60l20 -4l20 -4q-26 -70 -70 -184t-45 -116q-6 -18 -15 -23q-8 -5 -34 -5q-47 0 -68 -4q-18 0 -24 12zM448 1096q6 16 17 32q34 47 98.5 143.5t100.5 152.5q10 -2 20 -4.5t20 -4.5l-116 -299q-6 -18 -15 -23t-33 -5 q-49 0 -69 -4q-17 0 -23 12z" />
<glyph unicode="&#x201d;" horiz-adv-x="608" d="M180 1096q28 69 71 175.5t48 124.5q11 28 53 28h64q20 0 20 -13q0 -5 -12 -23q-14 -20 -89 -133t-112 -167zM479 1088q7 18 24 59t36 89t36 89t25 63q7 17 15.5 22t36.5 5h73q15 0 15 -6q0 -2 -6 -10.5t-9 -18.5q-41 -54 -103 -149t-98 -151z" />
<glyph unicode="&#x201e;" horiz-adv-x="608" d="M-172 -176q-2 0 121 297q7 16 15 21.5t36 5.5h68q16 0 16 -8q0 -2 -6 -10t-10 -18q-26 -38 -94 -142q-69 -102 -105 -158zM125 -176q28 68 69.5 170t49.5 127q8 16 16.5 21.5t36.5 5.5h71q16 0 17 -8q0 -2 -5.5 -10t-11.5 -18q-28 -38 -63 -91t-78 -119t-59 -90z" />
<glyph unicode="&#x2022;" horiz-adv-x="1024" d="M152 708q0 98 47.5 180t131 130.5t181.5 48.5q94 0 177 -48.5t131 -130.5t48 -180q0 -96 -48.5 -179t-131 -132t-176.5 -49q-98 0 -181 49t-131 131.5t-48 179.5z" />
<glyph unicode="&#x2026;" horiz-adv-x="2048" d="M260 41q28 123 108 123q17 0 28.5 -14t11.5 -38q0 -42 -32 -77t-73 -35q-37 0 -43 41zM940 47q36 117 112 117q40 0 40 -52q0 -40 -33 -76t-72 -36q-41 0 -47 47zM1628 43q18 58 40 89.5t68 31.5q40 0 40 -48q0 -45 -30 -80.5t-75 -35.5q-35 0 -43 43z" />
<glyph unicode="&#x202f;" horiz-adv-x="368" />
<glyph unicode="&#x2039;" d="M104 340v80l748 348v-84l-656 -299l656 -309v-76z" />
<glyph unicode="&#x203a;" d="M-256 0v84l652 301l-652 303v80l744 -344v-76z" />
<glyph unicode="&#x205f;" horiz-adv-x="460" />
<glyph unicode="&#x2122;" horiz-adv-x="2027" d="M164 1331v93h655v-93h-274v-751h-105v751h-276zM973 580v844h172l270 -684l265 684h176v-844h-105v756l-307 -756h-64l-309 764v-764h-98z" />
<glyph unicode="&#xe000;" horiz-adv-x="725" d="M0 725h725v-725h-725v725z" />
<glyph unicode="&#xfb01;" horiz-adv-x="1024" d="M492 268q4 30 117 136q32 32 66 65q35 33 49 55q11 10 40.5 79.5t47.5 113.5h96q-15 -34 -45.5 -100.5t-71.5 -157t-86.5 -193t-60.5 -135.5q-4 -1 -12 -31q0 -6 12 -12q54 18 105 53t128 98t95 77q2 0 8 4t8 4q16 0 16 -27q0 -33 -24 -57q-162 -142 -332 -228 q-12 -4 -24 -7t-25 -6t-27 -3q-45 0 -45 32q0 46 17.5 97t44.5 104t55 111l-4 4l-105 -104q-4 -2 -9 -6t-9 -6q-9 4 -17 4q-8 8 -8 36zM857 908q4 8 12.5 42t22.5 50t44 16q17 0 28.5 -19t11.5 -49q0 -88 -76 -88q-37 0 -43 48zM-135 -475q0 47 4 71q14 84 43.5 186t84 256 t132.5 366h-4q-36 -40 -99.5 -106t-89.5 -83l-4 -2q-16 2 -16 51q0 8 5.5 16t18 23t13.5 17q18 20 97 96t118 124q12 13 25 42.5t29 71.5t30 73q20 62 64.5 195.5t95.5 279.5q52 144 76 190q33 54 39.5 63t27.5 9q25 -6 25 -40q0 -9 -4 -31.5t-4 -32.5q-16 -84 -143 -414 t-210 -530q-42 -104 -104.5 -280t-112.5 -329t-58 -207q0 -12 -2 -30t-2 -22q0 -44 27 -44q29 0 57 44q56 79 90 146t52 129.5t33 146.5t29 159q34 12 112 55.5t176 131.5q8 8 12 8q16 0 17 -35q-1 -27 -21 -49q-42 -44 -231 -156q-2 -90 -26.5 -197.5t-61.5 -199.5 q-37 -91 -76 -143q0 -7 -45 -56q-44 -50 -76 -64q-38 -12 -68 -12q-76 0 -75 113z" />
<glyph unicode="&#xfb02;" horiz-adv-x="1100" d="M496 268q0 24 16 44q22 25 76 71t85 78.5t51 70.5q20 40 66.5 170t74.5 201q46 140 85.5 253.5t105.5 287.5q6 24 44 24q36 0 36 -36v-8q-4 -40 -39 -140t-113 -306.5t-96 -256.5q-82 -219 -216 -621q0 -10 25 -16q11 4 27 4q60 16 166 100t166 136q24 0 24 -31 q0 -33 -24 -57q-96 -98 -206 -169t-214 -71q-62 0 -68 41q4 4 4 10q6 39 27 111t39 130t26 84v5q-32 -34 -82 -86.5t-55 -54.5q-7 0 -15 -8q-16 4 -16 40zM-135 -475q0 47 4 71q14 84 43.5 186t84 256t132.5 366h-4q-36 -40 -99.5 -106t-89.5 -83l-4 -2q-16 2 -16 51 q0 8 5.5 16t18 23t13.5 17q18 20 97 96t118 124q12 13 25 42.5t29 71.5t30 73q20 62 64.5 195.5t95.5 279.5q52 144 76 190q33 54 39.5 63t27.5 9q25 -6 25 -40q0 -9 -4 -31.5t-4 -32.5q-16 -84 -143 -414t-210 -530q-42 -104 -104.5 -280t-112.5 -329t-58 -207 q0 -12 -2 -30t-2 -22q0 -44 27 -44q29 0 57 44q56 79 90 146t52 129.5t33 146.5t29 159q34 12 112 55.5t176 131.5q8 8 12 8q16 0 17 -35q-1 -27 -21 -49q-42 -44 -231 -156q-2 -90 -26.5 -197.5t-61.5 -199.5q-37 -91 -76 -143q0 -7 -45 -56q-44 -50 -76 -64 q-38 -12 -68 -12q-76 0 -75 113z" />
<glyph unicode="&#xfb03;" horiz-adv-x="1591" d="M1059 268q4 30 117 136q32 32 66 65q35 33 49 55q11 10 40.5 79.5t47.5 113.5h96q-15 -34 -45.5 -100.5t-71.5 -157t-86.5 -193t-60.5 -135.5q-4 -1 -12 -31q0 -6 12 -12q54 18 105 53t128 98t95 77q2 0 8 4t8 4q16 0 16 -27q0 -33 -24 -57q-162 -142 -332 -228 q-12 -4 -24 -7t-25 -6t-27 -3q-45 0 -45 32q0 46 17.5 97t44.5 104t55 111l-4 4l-105 -104q-4 -2 -9 -6t-9 -6q-9 4 -17 4q-8 8 -8 36zM1424 908q4 8 12.5 42t22.5 50t44 16q17 0 28.5 -19t11.5 -49q0 -88 -76 -88q-37 0 -43 48zM433 -475q0 47 4 71q14 84 43.5 186t84 256 t132.5 366h-4q-36 -40 -99.5 -106t-89.5 -83l-4 -2q-16 2 -16 51q0 8 5.5 16t18 23t13.5 17q18 20 97 96t118 124q12 13 25 42.5t29 71.5t30 73q20 62 64.5 195.5t95.5 279.5q52 144 76 190q33 54 39.5 63t27.5 9q25 -6 25 -40q0 -9 -4 -31.5t-4 -32.5q-16 -84 -143 -414 t-210 -530q-42 -104 -104.5 -280t-112.5 -329t-58 -207q0 -12 -2 -30t-2 -22q0 -44 27 -44q29 0 57 44q56 79 90 146t52 129.5t33 146.5t29 159q34 12 112 55.5t176 131.5q8 8 12 8q16 0 17 -35q-1 -27 -21 -49q-42 -44 -231 -156q-2 -90 -26.5 -197.5t-61.5 -199.5 q-37 -91 -76 -143q0 -7 -45 -56q-44 -50 -76 -64q-38 -12 -68 -12q-76 0 -75 113zM-135 -475q0 47 4 71q14 84 43.5 186t84 256t132.5 366h-4q-36 -40 -99.5 -106t-89.5 -83l-4 -2q-16 2 -16 51q0 8 5.5 16t18 23t13.5 17q18 20 97 96t118 124q12 13 25 42.5t29 71.5t30 73 q20 62 64.5 195.5t95.5 279.5q52 144 76 190q33 54 39.5 63t27.5 9q25 -6 25 -40q0 -9 -4 -31.5t-4 -32.5q-16 -84 -143 -414t-210 -530q-42 -104 -104.5 -280t-112.5 -329t-58 -207q0 -12 -2 -30t-2 -22q0 -44 27 -44q29 0 57 44q56 79 90 146t52 129.5t33 146.5t29 159 q34 12 112 55.5t176 131.5q8 8 12 8q16 0 17 -35q-1 -27 -21 -49q-42 -44 -231 -156q-2 -90 -26.5 -197.5t-61.5 -199.5q-37 -91 -76 -143q0 -7 -45 -56q-44 -50 -76 -64q-38 -12 -68 -12q-76 0 -75 113z" />
<glyph unicode="&#xfb04;" horiz-adv-x="1667" d="M1063 268q0 24 16 44q22 25 76 71t85 78.5t51 70.5q20 40 66.5 170t74.5 201q46 140 85.5 253.5t105.5 287.5q6 24 44 24q36 0 36 -36v-8q-4 -40 -39 -140t-113 -306.5t-96 -256.5q-82 -219 -216 -621q0 -10 25 -16q11 4 27 4q60 16 166 100t166 136q24 0 24 -31 q0 -33 -24 -57q-96 -98 -206 -169t-214 -71q-62 0 -68 41q4 4 4 10q6 39 27 111t39 130t26 84v5q-32 -34 -82 -86.5t-55 -54.5q-7 0 -15 -8q-16 4 -16 40zM433 -475q0 47 4 71q14 84 43.5 186t84 256t132.5 366h-4q-36 -40 -99.5 -106t-89.5 -83l-4 -2q-16 2 -16 51 q0 8 5.5 16t18 23t13.5 17q18 20 97 96t118 124q12 13 25 42.5t29 71.5t30 73q20 62 64.5 195.5t95.5 279.5q52 144 76 190q33 54 39.5 63t27.5 9q25 -6 25 -40q0 -9 -4 -31.5t-4 -32.5q-16 -84 -143 -414t-210 -530q-42 -104 -104.5 -280t-112.5 -329t-58 -207 q0 -12 -2 -30t-2 -22q0 -44 27 -44q29 0 57 44q56 79 90 146t52 129.5t33 146.5t29 159q34 12 112 55.5t176 131.5q8 8 12 8q16 0 17 -35q-1 -27 -21 -49q-42 -44 -231 -156q-2 -90 -26.5 -197.5t-61.5 -199.5q-37 -91 -76 -143q0 -7 -45 -56q-44 -50 -76 -64 q-38 -12 -68 -12q-76 0 -75 113zM-135 -475q0 47 4 71q14 84 43.5 186t84 256t132.5 366h-4q-36 -40 -99.5 -106t-89.5 -83l-4 -2q-16 2 -16 51q0 8 5.5 16t18 23t13.5 17q18 20 97 96t118 124q12 13 25 42.5t29 71.5t30 73q20 62 64.5 195.5t95.5 279.5q52 144 76 190 q33 54 39.5 63t27.5 9q25 -6 25 -40q0 -9 -4 -31.5t-4 -32.5q-16 -84 -143 -414t-210 -530q-42 -104 -104.5 -280t-112.5 -329t-58 -207q0 -12 -2 -30t-2 -22q0 -44 27 -44q29 0 57 44q56 79 90 146t52 129.5t33 146.5t29 159q34 12 112 55.5t176 131.5q8 8 12 8 q16 0 17 -35q-1 -27 -21 -49q-42 -44 -231 -156q-2 -90 -26.5 -197.5t-61.5 -199.5q-37 -91 -76 -143q0 -7 -45 -56q-44 -50 -76 -64q-38 -12 -68 -12q-76 0 -75 113z" />
</font>
</defs>
</svg>
